<?xml version="1.0" encoding="UTF-8"?>
<svg id="Ebene_2" xmlns="http://www.w3.org/2000/svg" version="1.1" viewBox="0 0 900 717">
  <!-- Generator: Adobe Illustrator 29.1.0, SVG Export Plug-In . SVG Version: 2.1.0 Build 142)  -->
  <defs>
    <style>
      .st0 {
        fill: #008865;
      }

      .st1 {
        fill: #00765a;
      }
    </style>
  </defs>
  <path class="st0" d="M444.7,665.7c-.4-.3-.7-.7-1-1.2l-8.3-15.4c-1-1.8-3.2-2.6-5.1-2l-13.6,5c-.5.2-1.1.3-1.6.3l-28.1-1.2c-1.2,0-2.3.4-3.1,1.2l-4,4c-.6.5-1.2,1-1.8,1.3l-1.2,12.7c0,.9,0,1.7.6,2.5l11.8,19.5c0,.1.3.4.3.4l10.6,13.3,1.6,2.3h0s.1,0,.1,0c.4-.1.8-.3,1.2-.3l21-3.3,20.5-2.5c.8-.1,1.6-.5,2.2-1l11.4-9.8c.9-.7,1.4-1.9,1.4-3l.2-8.1c0-1.3-.5-2.5-1.5-3.3l-13.7-11.4Z"/>
  <path class="st0" d="M512.9,678.3c0-.4-.1-.7-.1-1.1v-2.2c0-1.5-.8-3-2.1-3.7l-26.9-15.4c-.4-.2-.7-.5-1-.8l-14.3-15.8c-1-1.1-2.6-1.6-4.1-1.3l-13.3,3.2c-2.7.6-4,3.6-2.7,6l5,9.2c.3.5.6.9,1,1.2l16.4,13.7h0v.2c1,.8,1.5,2,1.5,3.3l-.3,9.7c0,2,1.4,3.9,3.5,4.2l15,2.6c.4,0,.8,0,1.2,0l19.2-2.3c2.5-.3,4.2-2.8,3.5-5.2l-1.5-5.5Z"/>
  <path class="st0" d="M240.7,615.3c-1-.3-1.9-1-2.4-1.9l-11.3-19c-.5-.9-.7-2-.5-3l5.5-24.8c0-.2.2-.6.2-.6l9.7-25.4c.2-.5.4-.9.8-1.3l7.2-8c1.5-1.7,1.4-4.1,0-5.7l-4.7-4.9-.2-.2-16.5-15.2c-.5-.4-1-.8-1.7-1l-12.4-3.5c-.6-.2-1.3-.2-2,0l-14.2,2.8c-.1,0-.3,0-.3,0l-8.8,2.4c.1.5.2,1,.3,1.5l5.6,54.5,5.5,61.3c0,.2.1.7.1.7l6.1,24.3h0s0,0,0,0h0s0,0,0,0c.2.9.7,1.6,1.3,2.2l12.9,11c1.3,1.1,3.2,1.3,4.7.5l14-7.6c.6-.3,1-.7,1.4-1.2l12.2-16.6c.2-.3.4-.6.5-1l5.2-13.5-2.6-2.4-15.6-4.6Z"/>
  <path class="st0" d="M390.1,713.4l-10.8-13.5c-.1-.1-.3-.4-.3-.4l-11.2-18.5-3.2,4.2c-.1.2-.4.5-.4.5l-12.4,11.9c0,0-.2.2-.2.2l-3.3,2.7,8.8,13.4c0,0,.2.3.2.3l2.3,2.9h33.1l-2.4-3.4c0,0-.2-.2-.2-.2Z"/>
  <path class="st0" d="M309.6,707l10.9-3.7c.1,0,.4-.2.4-.2l10.6-4.9c.4-.2.7-.4,1-.6l10.8-9.1c0,0,.2-.2.2-.2l11.4-11c.2-.1.4-.5.4-.5l8.9-11.7c.5-.6.7-1.3.8-2.1l.5-5.2c.1-1.4-.5-2.8-1.6-3.7l-16.5-12.7c0,0-.3-.2-.3-.2l-22.7-14.8c-.4-.2-.7-.4-1.1-.5l-20.2-5.7c-.7-.2-1.4-.2-2,0l-29.7,6.5c-.4,0-.7.1-1.1.1l-5.7,14.8c-.1.4-.3.7-.5,1l-14.8,20.2c-.4.5-.8.9-1.4,1.2l-9.4,5.1h0s0,0,0,0c-2.6,1.4-2.9,5-.7,6.9l2.8,2.4c.1.1.4.3.4.3l42.1,38.4h24c-.6-.6-1.1-1.4-1.4-2.2-1-3.2.7-6.7,3.9-7.8Z"/>
  <path class="st0" d="M515.2,700.8l-23.5,2.8h-.7c-.3,0-.7,0-1,0l-20.5-3.5c-1.2-.2-2.5.1-3.4,1l-14,12c-.6.6-1.4.9-2.2,1l-24,3h0s97.5,0,97.5,0l-3.5-13.1c-.5-2-2.4-3.3-4.5-3.1Z"/>
  <path class="st0" d="M338,708.8l-12.5,5.8c-.1,0-.4.2-.4.2l-6.6,2.2h26l-5.7-8.6c-.3.2-.5.3-.7.5Z"/>
  <path class="st0" d="M317.2,560.1l-15.6-6.8c-.4-.2-.7-.4-1-.7l-17.2-14.6c-.2,0-.3,0-.5,0h-.4l-19.6-1.4c-.4,0-.7-.2-1.1-.3l-8.3,9.3c-.3.4-.6.8-.8,1.3l-8.6,22.4c0,.2-.2.6-.2.6l-4.2,19.2c-.2,1,0,2.1.5,3l6.3,10.7c.5.9,1.4,1.6,2.4,1.9l12.4,3.7c.9.3,1.7.7,2.4,1.4l.4.4c1-.7,2.2-1.3,3.5-1.6h0s0,0,0,0l33-7.2c1.5-.3,3-.3,4.5.1h.5c0,.1,7.9-13.4,7.9-13.4.1-.2.3-.5.3-.7l5-14.6c.1-.3.2-.6.2-.9l.8-7.5c.2-1.8-.8-3.5-2.5-4.3Z"/>
  <path class="st0" d="M896.3,401.9c0,0,0,.2,0,.2l3.6,11.2v-16.5l-4.9.5,1.2,4.5Z"/>
  <path class="st0" d="M811.3,676.5v-1l1.3-16.8c0-.6,0-1.2-.2-1.7l-2.9-8.4c-.6-1.8-2.3-3-4.2-2.8-6.3.4-17.3,1.1-20.2,1.1h-.3c-1.9.2-8.9,1.9-12.7,2.9-3.3.8-5.2,1.3-6.4,1.6-.4,0-.8.2-1.2.4-2.9,1.7-10.2,6.5-16.2,10.7l-8,4.9c-1.2.7-2,2-2,3.4l-.3,8.3c0,.4,0,.8.1,1.2l4.4,17.2v.3l7.1,3.3c.5.3,1.1.4,1.7.4l20.1.4c.5,0,.9,0,1.3.3l17.6,6.4h0s0,.2,0,.2c1.5.6,3.3.2,4.4-1l10.3-10.3c.3-.3.6-.5.9-.7l5.3-3.1c1.5-.9,2.3-2.6,2-4.3l-2-13.1Z"/>
  <path class="st0" d="M829.4,299.9l-19.2,20.4c-.2.2-.4.4-.7.6l-6,4.3c-1.3.9-2,2.5-1.7,4l1.3,9c0,.7.3,1.3.7,1.8l8.5,12.2c.2.3.3.5.4.8l5.7,14.2c.2.6.3,1.2.5,1.8v.7l13.5,8.7c.3.2.6.3,1,.4l18.2,6c.2,0,.4.2.7.2l16.8,2.7h1l9.5-.9v-.4c-.2-.4-.3-.8-.3-1.2l-2.6-48.2c0-1.1-.5-2.1-1.3-2.9h0s0,0,0,0l-13.7-12.5-17.3-16.6c-.3-.3-.6-.5-.9-.7l-9.2-5c-1.6-.9-3.7-.6-5,.8Z"/>
  <path class="st0" d="M891.5,427.4l-7-21.8c0,0,0-.2,0-.2l-.8-3.2c-.5-2-2.4-3.3-4.4-3.1l-9.6.9c-.3,0-.7,0-1,0l-19.3-3c-.2,0-.7-.2-.7-.2l-20.7-6.8c-.4,0-.7-.3-1-.4l-6.9-4.4h0c0,0,3.5,14.2,3.5,14.2.2.6.4,1.1.8,1.6l7.6,9.3c0,0,.2.2.2.2l9.6,10.2c.3.3.4.5.6.8l6.4,11.4c1.7,3,.6,6.7-2.4,8.4-1,.5-2,.8-3,.8-2.2,0-4.3-1.1-5.4-3.1l-5.7-10.1c-.1-.3-.3-.5-.6-.8l-8.9-9.5c0,0-.2-.2-.2-.2l-9.6-11.7c-.4-.5-.7-1-.8-1.6l-4.3-17.4c0-.2-.1-.4-.1-.7l-1.3-15.4c0-.4-.1-.8-.3-1.2l-4.6-11.5c0-.3-.3-.6-.4-.8l-9.4-13.4c-.3-.5-.6-1.1-.7-1.8l-.2-1.6c-.4-3-4-4.6-6.5-2.8l-26.8,18.9c-2,1.4-2.4,4.2-.8,6.1l5.3,6.5c.2.2.4.5.5.8l8.6,17.2c.1.3.2.5.3.8l4.7,17.8c.2.9.7,1.7,1.5,2.3l8.6,6.5c.2,0,.5.3.5.3l9.2,5.2c3,1.7,4,5.4,2.3,8.4-1.1,2-3.2,3.1-5.3,3.1s-2.1-.3-3-.8l-9.8-5.6c-.3-.1-.5-.3-.7-.4l-2.5-1.9-.2,4.7c0,.6-.2,1.2-.4,1.7l-7.2,14.4c-1.1,2.1-3.3,3.4-5.5,3.4s-1.9-.2-2.7-.7c-3-1.5-4.3-5.2-2.7-8.2l6-12c.3-.5.4-1.1.4-1.7l.5-12.3c0-.4,0-.9-.1-1.3l-4.9-18.5c0-.3-.2-.5-.3-.8l-7.4-14.8c-.1-.3-.3-.5-.5-.8l-10.6-12.8c-.8-1-2-1.5-3.2-1.5h-3.1c-.9,0-1.8.3-2.5.9l-28.2,21.5c-1.6,1.2-2.1,3.3-1.3,5.1l6.7,14.5,9.3,21.4c.2.4.5.8.8,1.2l44.8,48.1c1.1,1.2,2.8,1.6,4.3,1.1l10.4-3.3c.1,0,.4,0,.4,0l51-11.2s.2,0,.2,0l22.1-6.2c.3,0,.6-.1.9-.1l26.2-1.4h.5l15.7,1v-.2c1.3.1,2.6-.5,3.4-1.5v-13.1l-7.9-11.1c-.2-.3-.4-.7-.6-1.1Z"/>
  <path class="st0" d="M873.4,708c-.3,0-.7,0-1-.2l-18.3-5.2c-.1,0-.4,0-.4,0l-24.5-4.1c-1-.1-2,0-2.8.5l-12.9,7.5c-.3.2-.6.4-.9.7l-7.8,7.8c-.6.6-.9,1.3-1.1,2h96.2v-6.9c-.7-.6-1.6-1-2.6-1l-24-1Z"/>
  <path class="st0" d="M896.1,576.4l-5.1-16.6c0-.3-.2-.6-.4-.9l-9.5-15.8c0-.2-.3-.5-.3-.5l-11.2-13.5c-.4-.6-1-1-1.6-1.2l-12.5-5.2c-.5-.2-1.1-.3-1.6-.3h-8.5c-.9,0-1.7.3-2.5.8l-10.6,7.8c-2.7,2-6.6,1.4-8.6-1.3s-1.4-6.6,1.3-8.6l12.5-9.2c-.8-.6-1.5-1.4-1.9-2.4l-6.3-15.4c-1.3-3.2.3-6.7,3.4-8,3.2-1.3,6.7.3,8,3.4l5,12.3c.3.8.9,1.5,1.7,2l11.1,6.9c.2.1.6.3.6.3l16,6.7c.7.3,1.4.8,2,1.4.2-.3.3-.5.5-.8l9.8-13.3,8.5-12.7c.4-.5.6-1,.7-1.6l2.7-14.8h0s0,0,0,0c0-.5,0-1,0-1.6l-.9-4.3c-.4-1.9-2-3.2-3.8-3.3l-13.9-.9h-.5l-24.2,1.3c-.3,0-.6,0-.9.1l-21.2,6s-.2,0-.2,0l-50.8,11.2c-.1,0-.4,0-.4,0l-3.4,1.1c-2.6.8-3.7,3.9-2.3,6.2l10.9,17.4,23.5,34c.2.2.5.6.5.6l28.9,29.5c.2.2.3.4.5.6l19.5,29.3c.3.4.7.8,1.1,1.1l25,17.3,13.2,9.4v-37.7l-3.8-16.4c0,0,0-.3,0-.3Z"/>
  <path class="st0" d="M841.4,627.4c-1.2-.8-2.2-1.8-3.1-3l-10,9.3c-.2.1-.5.4-.5.4l-5.6,3.8c-1.6,1.1-2.2,3-1.6,4.8l4.3,12.5c.2.6.3,1.1.2,1.7l-1.4,17.9c0,.3,0,.7,0,1l1.5,10c.7-.2,1.5-.2,2.3,0l28.8,4.8c.1,0,.4,0,.4,0l17.6,5c.3,0,.7.2,1,.2l19.4.9h0,0s0,0,0,0h0l4.7.2c.2,0,.4,0,.6,0v-28.1l-30.8-22-27.8-19.3Z"/>
  <path class="st0" d="M180.5,170.1l-8.4-12.1c-.9-1.3-2.5-2-4.1-1.7l-6.6,1.1c-.5,0-1,.3-1.4.5l-14.8,8.6c-.4.2-.8.4-1.2.5l-9.2,1.9c-1.2.3-2.3,1.1-2.9,2.2l-4.8,9.6c-.3.5-.4,1.1-.4,1.7l-.6,17.1v31.3c0,.5,0,1,.3,1.4l5.9,16.5c0,.3.2.6.2.9l1.6,13.7,5.4-5.9c.7-.8,1.7-1.3,2.7-1.4l21.2-1.9c.6,0,1.1,0,1.6.2l11.3,3.4c1.4.4,2.9,0,4-.9l9.6-8.6,9.2-8.7c1.1-1.1,1.6-2.8,1.1-4.3l-4.2-13c0-.2-.1-.6-.1-.6l-2.5-15.4c-.1-.7-.4-1.4-.9-1.9l-11.3-14.2c-.7-.8-1-1.8-.9-2.9l.9-14.4c0-1-.2-1.9-.7-2.6Z"/>
  <path class="st0" d="M92.3,370.6l29.3,19.2,26.6,15.8c.2,0,.5.3.5.3l11.4,4.7c1-.3,2-.4,3-.5.4,0,.7,0,1.1,0l24.8-17.6c.6-.4,1.1-1,1.3-1.6l5-10.2c.2-.3.3-.7.4-1.1l8.6-46.5c0-.2.1-.5.1-.5l9.5-29.5c0,0,0-.2,0-.2l12.1-45.6c0-.1.1-.4.1-.4l2.4-6.2-5.4-.7c-.2,0-.6-.1-.6-.1l-10.6-3c-1.4-.4-2.9,0-4,1l-9.7,9.2-14.9,13.4c-1.1,1-2.6,1.3-4,.9l-15.6-4.8c-.5-.2-1.1-.2-1.6-.2l-14.1,1.3c-1.1,0-2.1.6-2.7,1.3l-5.8,6.4c.6,1.1.9,2.3.7,3.6l-2,20h0c0,.1,15.2,1.2,15.2,1.2.3,0,.7,0,1,.2l19.9,6.1c.3,0,.6.2.9.4l16.2,9.5c2.9,1.7,3.9,5.5,2.2,8.4-1.1,2-3.2,3-5.3,3s-2.1-.3-3.1-.9l-15-8.8c-.3-.2-.6-.3-.9-.4l-17.2-5.3c-.3,0-.7-.2-1-.2l-6-.4c-2.7-.2-4.8,2.1-4.4,4.8l.9,5.9,4.4,23.5c0,.3.1.5.2.8l8.2,20.2c1.3,3.2-.2,6.8-3.4,8-.7.3-1.5.4-2.3.4-2.4,0-4.7-1.4-5.7-3.8l-8.7-21.3c0-.3-.2-.5-.2-.8l-4.7-24.9-1.4-9.5c-.3-2.1-2.2-3.7-4.4-3.6l-8.2.5c-.2,0-.6,0-.6,0l-20.7,4.2c-.3,0-.6,0-.8,0h-21.7c-3.4,0-6.2-2.7-6.2-6.2s2.8-6.2,6.2-6.2h20.5c.3,0,.6,0,.8,0l20.3-4.1c.2,0,.6,0,.6,0l12-.7v-.6l1.8-17.4c0-.9,0-1.8-.6-2.6l-4.2-7.1c-.3-.5-.5-1.1-.6-1.6l-2-17.5c0-.3-.1-.6-.2-.9l-6-16.8c-.2-.7-.4-1.4-.4-2.1v-.8l-1,.9c-.6.5-1.3.9-2.1,1.1l-17.7,5.5c-.2,0-.5.2-.7.3l-15.1,7.9c-.2,0-.4.2-.7.3l-14.5,4.7c-.8.3-1.6.8-2.1,1.5l-10.2,14.2c-.2.3-.3.6-.5.9l-7.6,19.5c-.3.8-.8,1.4-1.5,1.9l-14.7,10.1c.7,1,1.3,1.9,1.7,3h0s0,0,0,0l8.3,21.6c.3.7.7,1.3,1.3,1.7l30.1,24.8,25.6,18.9s.2.1.2.1Z"/>
  <path class="st0" d="M769.9,714.2l-21.4-.5c-.6,0-1.2-.1-1.7-.4l-16.7-8c-.5-.2-1-.4-1.5-.4l-14.7-.9c-.6,0-1.2-.2-1.7-.5l-16.3-8.9c-.2-.1-.6-.4-.6-.4l-10.8-8.7c-.5-.4-1.1-.2-1.5.3-.7,1-1.9,1.4-3,1.6l-15.5,3c-.8.2-1.6.6-2.2,1.2l-10.3,10.6c-1.7,1.8-1.5,4.7.4,6.2l5.3,4.1c0,0,.2.2.2.2l6.2,4.2h107.8l-.2-2.2-1.7-.6Z"/>
  <path class="st0" d="M639.9,717h2.9c-.9-.3-2-.3-2.9,0Z"/>
  <path class="st0" d="M888.5,199h-18c-1.2,0-2.3.5-3.1,1.3l-11.8,12.8c-.4.5-.7,1-.9,1.6l-8.2,26.6c0,.2-.1.5-.1.5l-7.9,42.1c-.3,1.8.5,3.6,2.1,4.4l10.3,5.7c.3.2.6.4.9.7l18.4,17.7,14.6,13.4c.6.5,1.2.8,2,1l13.4,2.9v-62.3l-8.9,3.5c-.1,0-.5.2-.5.2l-13.4,3.5c-.5.1-1,.2-1.6.2-2.7,0-5.2-1.8-6-4.6-.9-3.3,1.1-6.6,4.4-7.5l12.7-3.3c.2,0,.5-.2.5-.2l11.1-4.4c.6-.2,1.2-.6,1.6-1.1h0v-50.6l-10.1-3.7c-.4-.2-1-.3-1.4-.3Z"/>
  <path class="st0" d="M333.5,259.9c1.2-2.4-.3-5.4-2.9-5.9l-8.1-1.6c-.3,0-.7-.2-1-.4l-40.2-19.4c-.2-.1-.4-.2-.6-.3l-13-3.7c-2.1-.6-4.3.5-5,2.5l-12.9,33.6h0s-.2.2-.2.2c0,.1-.1.4-.1.4l-4.3,16.5c-.4,1.5,0,3.1,1.3,4.2l10.8,9.7c.5.4.9,1,1.1,1.6l6.3,16.5c.3.7.7,1.3,1.3,1.7l5.7,4.6c1.2.9,2.7,1.2,4.1.7l10.9-4c.5-.2.9-.4,1.3-.7l11.8-10c1-.9,2.3-1.2,3.6-.9l16.5,3.6c.3,0,.5.1.8.3l6.5,2.9c2.9,1.3,6.1-1,5.9-4.1l-1.2-16.4v-.2l-.5-25.5c0-.7.1-1.3.4-1.9l1.8-3.7Z"/>
  <path class="st0" d="M719,326.6c-.5-.7-.7-1.6-.6-2.5l1.4-18.2,1.3-20.4c0-.5,0-1-.2-1.5h0s0,0,0,0l-5-16.3-.8.9c-.9,1-2.2,1.7-3.6,2l-22.4,3.5c-.3,0-.7,0-1,0h-.2l-23.4-.7c-.4,0-.8,0-1.1-.2l-22.8-7.1c-.2,0-.6-.2-.6-.2l-21.9-10.6c-.1,0-.3-.2-.4-.3l-11.8-7.6h0l.7,5.2c0,.8.4,1.5.9,2.1l17.9,21.8,33.4,42.5c.1.2.4.6.4.6l20.9,39.2c.1.3.3.6.6.8l8,9c1.5,1.6,3.9,1.8,5.7.5l30.7-23.4c1.3-1,2.8-1.6,4.4-1.8l-4.5-7.9-5.8-9.5Z"/>
  <path class="st0" d="M725.3,224c0-.4,0-.8,0-1.1l-2.2-12.6c0-.6-.3-1.1-.6-1.6l-8-12.2-6.3-10.3c-.7-1.2-1.9-1.9-3.3-2l-18.5-1.3c-.6,0-1.1,0-1.7.2l-12.9,4.5c-.5.2-1,.4-1.4.8l-24.3,21.8c0,0-.2.2-.2.2l-23.4,18.7c-.3.2-.7.4-1,.6l-12.8,5.4,3.2,1.7c.2,0,.5.3.5.3l11.4,7.3c.1,0,.4.3.4.3l20.4,9.9c.2,0,.6.2.6.2l20.3,6.3c.4,0,.7.2,1.1.2l20.7.6c.3,0,.5,0,.8,0l17.9-2.8c.9-.1,1.8-.6,2.4-1.3l10.6-11.6c.3-.3.5-.6.7-1l4.1-8.2h0c.3-.5.4-1,.4-1.5l1.1-11.4Z"/>
  <path class="st0" d="M351.8,237.7l14.5-12.2c.1,0,.4-.3.4-.3l12-12.6c1.6-1.7,1.5-4.4-.2-6l-3.6-3.3c-.7-.6-1.1-1.3-1.3-2.2l-4.9-22.6-4.3-17c-.2-1-.8-1.9-1.7-2.4l-9.6-6.5c-1.3-.9-2.9-1-4.3-.2l-5.7,3.1c-.2,0-.5.2-.5.2l-17.9,7c-.5.2-.9.5-1.3.8l-9.6,8.7c-1.2,1.1-2.7,1.6-4.2,1.6h-.2l-14.8-.5c-1.2,0-2.3-.6-3-1.5l-11.7-13.9h0s0-.1,0-.1c-.3-.4-.7-.7-1.2-1l-3.9-2.1c-2.7-1.4-5.9.3-6.1,3.3l-1.3,15v.3l-2.9,19.7v1l1.3,11.9c.2,1.7,1.4,3.1,3,3.6l18.5,5.3c.2,0,.7.3.7.3l39.5,19.1c.3.2.6.3,1,.4l19.8,4.1c1.3.3,2.5,0,3.5-.9Z"/>
  <path class="st0" d="M396.1,378.8c.7.2,1.6.2,2.3,0l14.2-3.8c.9-.2,1.8-.3,2.7-.3l30.9,1c.2,0,.5,0,.5,0l16.9,2.6c1.5.2,3-.3,3.9-1.5l22.4-28c.3-.3.6-.6.9-.9l13.5-9.1c2-1.4,2.4-4.2.9-6.1l-7.3-8.9c-.4-.4-.7-1-.8-1.6l-4.5-16.5c-.1-.5-.2-1-.1-1.5l1.6-15.7c0-1-.2-2-.7-2.8l-8.5-12.1c-.5-.7-1.1-1.2-1.8-1.5l-17.1-7c-.6-.2-1.2-.3-1.8-.3l-17.3.8c-.7,0-1.5,0-2.2-.3l-17.2-5.6-1.9,4.8c-.1.3-.3.8-.3,1.2l-1.3,17.4c0,.4-.1.7-.3,1.1-1,2.6-5.2,13.6-6.2,16.4-.2.4-.3.8-.3,1.3,0,3.5-.3,11.5-.4,14.6,0,.5,0,.9.2,1.3.8,2.4,2.9,8,4.7,12.5,1.3,3.2-.3,6.7-3.5,8-.7.3-1.5.4-2.3.4-2.5,0-4.8-1.5-5.7-3.9-5.7-14.5-5.7-15.9-5.7-17.1s.5-17.9.5-17.9c0-.7.1-1.4.4-2l6.2-16.3c.1-.4.3-.8.3-1.2l1.4-17.5c0-.4.1-.8.3-1.2l3.7-9.5c.5-1.4.3-3-.7-4.1l-5.9-7.3-10.1-13.8c-.1-.2-.5-.6-.5-.6l-1.8-1.7c-1.7-1.6-4.3-1.5-5.9.2l-13,13.7c-.1,0-.4.3-.4.3l-20.3,17c-1.7,1.4-3.8,2.2-5.9,2.2s-1.3,0-1.9-.2l-2.6-.5-4.2,8.7c-.3.6-.4,1.3-.4,1.9l.4,22.3v.2l1.5,20.2c.2,2.3,2.2,4.1,4.6,3.9l6.1-.6h.8l25.5,2.4c3.4.3,5.9,3.3,5.6,6.7-.3,3.4-3.3,5.9-6.7,5.6l-24.4-2.3h-.8l-12.3,1.1-.9,4.1c0,.2-.1.5-.1.5l-2.4,6.7c-.1.4-.2.8-.2,1.3l-.4,10.9c0,.7,0,1.3.4,1.8l4.5,10.3c.6,0,1.1.2,1.6.3h0,0s0,0,0,0h0l49.9,15.2Z"/>
  <path class="st0" d="M675.7,639.6l-8.8-29c-.2-.5-.4-1-.7-1.4l-12.8-16s-.1-.2-.1-.2l-24.5-34.5c-.6-.9-1-1.8-1.3-2.8-4.7-.8-9.8-1.6-11-1.9-1.7-.4-10.3-1.7-15.3-2.4-.5,0-.9-.2-1.3-.4-7-3.7-11.5-6.2-14.4-7.9-.5.4-1,.9-1.5,1.2l-21.3,13.4c-.6.4-1,.8-1.3,1.4l-18.5,30.8c-.2.3-.4.7-.5,1.1l-10.8,41.7c0,.3-.1.7-.1,1v9.8c0,3,3.1,5,5.8,3.8l5.4-2.3c.8-.4,1.7-.6,2.7-.5l24.1,1c.3,0,.5,0,.8,0l6.8,1.6c2.5.6,5-1.3,5.1-3.9,0-1.7.2-3.6.2-5.4-.3-.7-.3-1.4-.3-2.1s0-1.4-.4-2l-7.7-15.1c0-.2-.3-.5-.3-.5l-10.6-15.2c-1.9-2.8-1.3-6.6,1.5-8.6,2.8-1.9,6.6-1.3,8.6,1.5l11.1,15.8c.1.1.3.5.3.5l2.2,4.3c.3-1.1,1-2.1,1.9-2.8l15.4-12.5c0,0,.3-.2.3-.2l18.7-12.5c2.8-1.9,6.7-1.1,8.6,1.7,1.9,2.9,1.1,6.7-1.7,8.6l-18.2,12.2c0,0-.3.2-.3.2l-12.3,10c-.7.6-1.2,1.3-1.4,2.2l-2.7,10.9c0,.3-.1.6-.1.9-.2,6.7-.6,17.1-1,19.5,0,0,0,.2,0,.2l11.6,12.7c0,0,.3.3.3.3l10.9,14.3c.3.4.7.8,1.1,1l12.3,7.7c.1,0,.3.3.3.3l4,3.1h0s0-.1,0-.1l19-19.6c.6-.7,1.4-1,2.2-1.2l13.9-2.7c1.3-.3,2.3-1,2.9-2.2l4-7.6c.3-.6.5-1.3.5-2l-.6-18.2c0-.4,0-.7-.2-1.1Z"/>
  <path class="st0" d="M628.1,491.9h-.2l-26.9.9c-.3,0-.7,0-1,.2l-8.8,2.6c-1.8.5-3,2.1-3,4v28.8c0,1.5.7,2.9,2,3.6,3.1,1.8,8.5,4.7,13.5,7.4.4.2.8.3,1.3.4,3.7.5,11.9,1.8,13.9,2.2.9.2,4.5.8,8.8,1.5,1.8.3,3.6-.6,4.4-2.2l9.6-18.7h0s0,0,0,0c.3-.6.5-1.3.5-1.9v-24.2c0-2.3-1.8-4.1-4.1-4.2l-9.9-.2Z"/>
  <path class="st0" d="M515.7,2.6l8.5,8.1c.4.4,1,.8,1.7,1l20.6,6.2c0,0,.2,0,.2,0l24.9,6c.1,0,.4,0,.4,0l7.2,1c2.7.3,5-2,4.7-4.7l-1-8.5c0-.4-.1-.7-.3-1.1l-4.3-10.7h-64.3l1.1,1.7c.2.3.4.6.7.8Z"/>
  <path class="st0" d="M744,9.5l13.3,14.6c.3.3.5.7.7,1l4.1,8.5c1.4,2.9,5.4,3.2,7.2.5l1.4-2.2h0s0,0,0,0h0c.2-.3.4-.6.5-1l8-25.1c.1-.4.2-.8.2-1.3V.2h-38.8l2.4,7.8c.2.6.5,1.1.9,1.6Z"/>
  <path class="st0" d="M811,.2l5.1,3.5c.4.3.8.5,1.3.6l9.9,2.6c.9,0,1.7.3,2.5.7l11.3,2.9c.3,0,.7.1,1,.1l25.5.7h.4l26.8-2,5.3-.7V.2h-89Z"/>
  <path class="st0" d="M595,8.7l1.6,13.1c.3,2.3,2.4,3.9,4.7,3.6l12.2-1.5h.4l42.5-1.3,1.7-.6-5-21.7h-61.2l3,7.4c.1.4.2.7.3,1.1Z"/>
  <path class="st0" d="M680.1,9.9l1.7-1.2c.3-.2.6-.5.8-.8l6.2-7.7h-16.9l1.7,7.2c.6,2.9,4,4.2,6.5,2.5Z"/>
  <path class="st0" d="M704.3.6l-13.2,16.2c-.2.3-.5.6-.8.8l-6.8,4.8c-2.3,1.6-2.4,4.9-.2,6.6l19.7,15.9c.7.6,1.6.9,2.6.9,12.3,0,28.4,0,30.8,0h0c.9,0,2.7,0,11.4.8,3.2.3,5.6-3.1,4.1-6l-4.2-8.6c-.2-.4-.4-.7-.7-1l-14-15.3c-.4-.4-.7-1-.9-1.6l-4.4-14h-23.2c0,.2-.3.4-.3.4Z"/>
  <path class="st0" d="M336.4,25.2h0s0-.3,0-.3l-6.1,26.5c-.3,1.4.1,2.9,1.1,3.9l6.3,6.2c.2.3.4.5.6.8l7.6,12.6c.3.5.7,1,1.3,1.3l18.7,12.6c1.2.8,1.9,2,2.4,3.3l7.5-6.7c.3-.2.5-.4.8-.6l18.1-9.5c.9-.4,1.9-.6,2.9-.4l19.6,4.7c.3.1.7.1,1,.1h12.3c.9,0,1.7-.3,2.4-.7l10.1-7c.4-.3.8-.7,1.1-1.1l7.2-10.9c-.1-.3-.3-.6-.4-.8l-16.3-44c-.9-2.4-3.7-3.5-6-2.2l-6.1,3.6c0,0-.3.2-.3.2l-18.9,13.2c-.2.1-.5.3-.7.4l-7.6,3.3c-1.7.7-2.7,2.4-2.5,4.3l1.2,11.6c.3,3.4-2.1,6.4-5.5,6.7h-.6c-3.1,0-5.8-2.4-6.1-5.6l-1.6-15.6c0-.9-.5-1.8-1.1-2.4l-14.3-15.1c-2.3-2.4-2.2-6.3.3-8.7,2.4-2.3,6.3-2.2,8.7.3l11.8,12.4c1.2,1.3,3.1,1.6,4.7,1l6.7-2.9c.3,0,.5-.2.7-.4l18.3-12.8c0,0,.3-.2.3-.2l7.8-4.5c.6-.4,1.1-.8,1.4-1.4h-83.8l-4.5,24.5c0,.2-.1.6-.1.6Z"/>
  <path class="st0" d="M53,76.9c.6-.2,1.3-.2,1.9,0l24.3,6.2c1.6.4,3.3-.1,4.3-1.4l19.8-24.7c.2-.2.3-.4.6-.6,10.1-8.5,16.4-13.9,20.4-17.2,1.9-1.5,2-4.3.3-6.1l-8.8-9.1c0,0-.3-.3-.3-.3l-8.5-10.7c0,0-.2-.3-.2-.3l-5.4-7.9-3.9,3.2c-.6.4-1.2.7-1.9.9l-12.3,2.2c-.3,0-.7,0-1,0l-8.9-.6c-1.6,0-3.2.7-4,2.2l-5.3,9.6c-.3.6-.7,1-1.2,1.4l-14.2,10.4c-1,.7-1.6,1.8-1.7,3l-.7,8.2c0,.9.1,1.7.6,2.5l5,8.1c1.8,2.9.9,6.7-2,8.5-1,.6-2.1.9-3.2.9-2.1,0-4.1-1-5.3-3l-7-11.5c-.5-.7-.7-1.7-.6-2.5l.4-3.9c.2-2.7-2.1-4.9-4.8-4.5l-10,1.5c-.3,0-.6,0-.9,0-.6,0-1.1,0-1.6-.2L0,36.7v51.7l53-11.6Z"/>
  <path class="st0" d="M2.8,24.7l15.1,4.2c.6.1,1.2.2,1.7,0l18.3-2.6c.7,0,1.3-.4,1.9-.7l13.8-10c.5-.4.9-.9,1.2-1.4l1.8-3.3c1.1-2,.4-4.5-1.6-5.6l-7.2-4.2c-.4-.3-.8-.6-1.2-.9H0v24.4c.9-.2,1.8-.2,2.8,0Z"/>
  <path class="st0" d="M478.5,45.9c.1.4.3.7.6,1l33.8,45.3c1.3,1.8,3.9,2.2,5.7,1l20.8-14.4c.2-.2.4-.3.7-.4l14.4-6.5c.3-.1.7-.3,1-.3l17.9-2.9c.3,0,.5,0,.8,0l8.6.3c2.5,0,4.5-2,4.3-4.5l-.8-10.1-.4-12.5c0-2-1.6-3.7-3.6-4l-12.4-1.7c-.1,0-.4,0-.4,0l-25.9-6.3c0,0-.2,0-.2,0l-16.3-4.9c-1.7-.5-3.5,0-4.6,1.5l-2,2.7c-.4.5-.6,1.1-.7,1.7l-1.7,9.5c-.5,3-3.1,5.1-6,5.1s-.7,0-1.1,0c-3.3-.6-5.6-3.8-5-7.1l2.2-12.3c0-.6.3-1.2.7-1.7l2.6-3.6c1.3-1.7,1-4-.5-5.5l-4.8-4.6c-.3-.2-.5-.5-.7-.8l-6-9.5h-37.9c0,0,0,.1,0,.2l16.9,45.6Z"/>
  <path class="st0" d="M117.2,5.7l7.9,9.8c0,.1.3.3.3.3l11.9,12.2c1.2,1.2,3,1.6,4.6,1,7.5-3,20.9-8.4,45.3-18l9.2-4c1.1-.5,1.9-1.5,2.3-2.6l1.2-4.1h-86.4l3.6,5.3c0,0,.2.3.2.3Z"/>
  <path class="st0" d="M215.9,5.5l17.1,2.3h.7l27-.9c.2,0,.6,0,.6,0L294.8.4c.3,0,.6-.2.9-.3h-83.2c-.7,2.5.9,5,3.4,5.4Z"/>
  <path class="st0" d="M23.8,705.6c.2.2.4.4.5.7l3,4.9c1,1.6,3,2.3,4.8,1.8l31.7-9.9c.2,0,.5-.1.5-.1l50-9.5c.3,0,.7-.2,1-.3l36.4-16.9c0,0,.2-.1.2-.1l12-6.6c3.2-1.7,2.8-6.4-.6-7.6l-5.3-1.9c0,0-.2,0-.2,0l-30.6-9c-.4-.1-.7-.3-1-.5l-24.8-15.6c0,0-.3-.2-.3-.2l-10.9-8c-2.4-1.8-6-.5-6.6,2.5l-1.1,5.2c-.2.7-.5,1.4-1,2l-13.8,14.8c-.4.4-.7.7-1.2.9l-24.7,12.1c-1,.5-2.1.6-3.1.2l-20.2-6.6c-3.2-1.1-5-4.5-4-7.8,1.1-3.2,4.6-5,7.8-4l15.5,5c1.1.3,2.2.3,3.1-.2l18.1-8.9c.4-.2.9-.5,1.2-.9l9.9-10.6c.5-.6.9-1.3,1-2l2.3-11.1c-.7-.6-1.3-1.3-1.8-2.1l-12-19.9c-.3-.5-.4-1-.5-1.5l-3.8-22.8c-.1-.8-.5-1.6-1.1-2.2l-9.4-10c-.7-.8-1.7-1.2-2.8-1.3l-7.6-.5c-2.4-.1-4.3,1.7-4.4,4l-.4,10.4c0,.4,0,.8-.2,1.2l-9,26.5c-.9,2.6-3.3,4.2-5.8,4.2s-1.3-.1-2-.3c-3.3-1.1-5-4.6-3.9-7.8l8.4-24.8c.1-.4.2-.8.2-1.2l.4-13.3-4.2-.3c-.6,0-1.2,0-1.7.2L0,560.5v119.6l23.8,25.5Z"/>
  <polygon class="st0" points="0 717 .8 717 0 716.2 0 717"/>
  <path class="st0" d="M228.3,339.3l-7.6,40.8c-.4,2.2,1,4.4,3.3,4.9l31.1,6c.3,0,.5,0,.8,0h24.8c.7,0,1.4-.2,2.1-.6l17.2-10c.2,0,.5-.3.5-.3l28.3-11.7c2.2-.9,3.2-3.4,2.2-5.5l-3.3-7.6c-.3-.6-.3-1.2-.3-1.8l.5-15.6c0-.4,0-.9.2-1.3l2.8-8,.3-1.6-14.6-6.5c-.2-.1-.5-.2-.8-.3l-9.3-2c-1.3-.3-2.6,0-3.6.9l-8.8,7.5c-.4.3-.8.6-1.3.7l-18.5,6.8c-.7.3-1.4.4-2.1.4-1.4,0-2.7-.4-3.9-1.4l-12.9-10.4c-.6-.4-1-1-1.3-1.7l-6.5-16.8c-.3-.6-.7-1.2-1.1-1.6l-.7-.6c-2.4-2.1-6.1-1-6.9,2.1l-1.6,6c0,0,0,.2,0,.2h.1c0,0-9.2,28.5-9.2,28.5,0,.2-.1.5-.1.5Z"/>
  <path class="st0" d="M190.8,493l4.4-1.2c0,0,.3,0,.3,0l17.5-3.5c.7-.1,1.3,0,2,0l18.2,5c.6.2,1.2.5,1.7,1l18.9,17.5s.2.2.2.2l11.3,11.7c.7.7,1.6,1.2,2.7,1.3l9.2.7c1.6,0,3.2-.7,4-2.1l3.1-5.5c.1-.2.4-.7.4-.7l10.6-12.5c0-.1-.1-.4-.1-.4l-8.3-55.5c0-.5-.2-1-.5-1.4l-7.1-12.9c-.3-.6-.5-1.3-.5-2v-13c0-.3,0-.5,0-.8l-1.1-5.8c-.3-2-2.1-3.4-4.1-3.4h-19c-.3,0-.5,0-.8,0l-37.7-7.2c-1.8-.3-3.7.6-4.5,2.3l-1.5,3.1c-.3.6-.8,1.2-1.3,1.6l-27,19.1h0s0,0,0,0c-1.1.8-1.8,2.2-1.7,3.6l2,39.9c0,.3,0,.5,0,.7l3.8,17.3c.5,2.3,2.9,3.7,5.2,3.1Z"/>
  <path class="st0" d="M301.5,515.9l-7.1,8.4c-.2.2-.3.4-.4.7l-2.3,4.1,15.6,13.2c.3.3.7.5,1,.7l20.6,9c.9.3,1.9.4,2.8.2l10-2.8,2.4-2.8-21.8-22.6c-.3-.3-.6-.5-1-.7l-14.4-8h0s0,0,0,0c-1.7-.9-3.9-.6-5.2,1Z"/>
  <path class="st0" d="M9.6,434.4c.7-.4,1.5-.6,2.4-.6l22.6,1.1c.3,0,.6.1.9.2l8.6-12.9c.3-.4.7-.8,1.1-1.1l18-12.3c.2-.1.5-.4.5-.4l10-9.5c.3-.2.5-.5.7-.8l4.3-6.7h-.2c-.2-.3-.6-.5-.6-.5l-26.2-19.4c-.2-.1-.5-.4-.5-.4l-22.2-18.3c-1.6-1.3-3.9-1.3-5.4,0h0s0,0,0,0l-16.6,14.7c0,0-.3.3-.3.3L0,372.3v67.9l9.6-5.8Z"/>
  <path class="st0" d="M9.8,537.4c.6-.2,1.1-.2,1.7-.2l2.4.2c2.6.2,4.7-2,4.4-4.7-.5-4.3-1.3-10.3-2.1-15.6,0-.6,0-1.2.1-1.7l6.6-22.9c.2-.7.5-1.3,1-1.7l17.9-19c.4-.4.8-.7,1.3-.9l1.4-.7c2-.9,2.9-3.2,2.2-5.2l-3.7-10c-.3-.9-.9-1.6-1.7-2.1l-7.9-5c-.6-.4-1.3-.7-2-.7l-16.2-.8c-.8,0-1.7.2-2.4.6L0,454.7v86.2l9.8-3.5Z"/>
  <path class="st0" d="M128.5,157.6l11.1-2.3c.4,0,.8-.3,1.2-.5l15-8.7c.5-.3,1-.4,1.4-.5l17.5-2.9c.7-.1,1.3-.4,1.9-.8l15.3-11.7c.7-.5,1.4-.8,2.3-.9l25.8-1.9h.7l21.4,1.8c.6,0,1.2.3,1.8.6l1.7,1c1.9,1.1,4.3.6,5.6-1.2l20.2-28.8,20.5-28.8c0,0,.2-.4.2-.4l13.6-23.9c.2-.3.3-.7.4-1.1l6.2-26.8,1.9-10.2-10.7,7.5c-.5.3-1.1.6-1.6.7l-38.7,7.5c-.2,0-.4,0-.7,0l-30,1h-.7l-22.2-3c-1.9-.3-3.8.9-4.5,2.7l-5,13.3c0,.3-.2.5-.2.8l-2.7,18.2c0,.4-.2.7-.3,1l-4.3,9.7c-.6,1.5-.4,3.2.6,4.4l5.4,6.4c.6.7,1.4,1.2,2.3,1.4l15.2,3.5c.4,0,.8,0,1.3,0l17.8-1.3,13.6-.4c3.4,0,6.3,2.6,6.3,6,0,3.4-2.6,6.2-6,6.3l-13.3.4-19.1,1.4h-.4c-.5,0-1,0-1.4-.2l-20.7-4.8c-.9-.2-1.7-.7-2.3-1.4l-8.4-10c-1-1.2-2.4-1.7-3.9-1.4l-5.4,1c-.3,0-.5.1-.8.2l-13.6,5.2c-.7.3-1.2.6-1.7,1.1l-8.6,9.8c-.2.2-.4.5-.6.8l-4.8,9c-1.1,2.1-3.1,3.3-5.4,3.3s-4.7-1.3-6.1-4.2c-.6-1.2-.6-2.6,0-3.8l6-11.3c.2-.3.3-.5.6-.8l11.6-13.1c.5-.5,1-.9,1.7-1.1l17.5-6.7c.3,0,.5-.2.8-.2l7-1.2c1.3-.3,2.5-1.2,3.1-2.4l4-9.1c.1-.3.3-.7.3-1l2.7-17.8c0-.3.1-.6.2-.8l2.7-7.1c-17.8,7-43.1,17.1-49,19.6-.4.1-.7.3-1,.6-3.1,2.5-13.8,11.5-23.7,19.9-.2.2-.6.6-.6.6l-20.8,26c-1.1,1.3-1.2,3.2-.3,4.7l3.2,5.3c.2.4.3.7.4,1l4.8,17.2c0,.2.1.4.1.6l1.2,10.7h0s0,.1,0,.1c0,.7.3,1.4.7,2l7.5,10.4c.3.4.6.7,1,1l10.7,7.8c.9.7,2.1,1,3.3.7Z"/>
  <path class="st0" d="M9.8,175.7c2.3-1.2,3-4.2,1.4-6.3l-2.8-3.6c-.6-.8-.9-1.7-.9-2.7l.8-24.4c0-.5.1-1.1.3-1.6l6.1-13.7c0-.3.2-.6.3-.9l3.1-14.9c.2-.8.6-1.6,1.2-2.1l3.4-3.3L0,107.2v73.3l9.8-4.8Z"/>
  <path class="st0" d="M13.8,289.6c1.4,1.3,3.6,1.4,5.2.3l11-7.6c.7-.5,1.2-1.1,1.5-1.9l6.8-17.4c0-.3.3-.7.5-.9l13.4-18.7c.5-.7,1.3-1.3,2.1-1.5l17.4-5.7c.2,0,.6-.3.6-.3l15.2-8c.2-.1.4-.2.7-.3l16.9-5.2c.5-.2,1-.4,1.4-.8l5.8-4.7c1-.8,1.5-2,1.5-3.2v-14.7l.7-20c0-.6.2-1.2.4-1.7l3.2-6.3c.9-1.8.4-4-1.3-5.2l-11.2-8.1c-.4-.3-.7-.6-1-1l-5.4-7.5c-1.1-1.6-3.3-2.2-5-1.4l-10.1,4.3c-.2,0-.6.2-.6.2l-14.9,3.7c-.6.2-1.3.5-1.8,1l-25.7,23.3c-.1,0-.4.3-.4.3l5,3.9c.5.4,1,1,1.3,1.6l9.2,19.8c1.4,3.1,0,6.7-3,8.2-.8.4-1.7.6-2.6.6-2.3,0-4.6-1.3-5.6-3.6l-7.9-17c-.3-.6-.7-1.2-1.3-1.6l-12.5-9.5h-.5l-18.5,9.1c-.2.1-.6.4-.6.4L0,195.3v81.8l13.7,12.5Z"/>
  <path class="st0" d="M11.1,338.8c1.3-1.2,1.7-3,1.1-4.6l-7-18.4c-.2-.6-.6-1.2-1.1-1.6L0,310.5v38.3l11.1-9.9Z"/>
  <path class="st0" d="M313,85.2c0,.1-.2.4-.2.4l-21.2,29.7-15.1,21.4c-1.5,2-.8,4.9,1.4,6.1l8.8,4.7c.4.3.9.6,1.2,1l9.7,11.6c.7.9,1.9,1.5,3,1.5l5,.2c1.1,0,2.1-.3,3-1.1l8.2-7.5c.4-.3.8-.7,1.3-.8l19.4-7.6c.2,0,.5-.2.5-.2l7.8-4.2c1.2-.7,2-1.9,2.2-3.3l1.1-10.8c0-.4.2-.9.4-1.3l8.3-17.9c.3-.8.5-1.7.3-2.6l-1-4.9c-.2-1.1-.9-2.1-1.8-2.7l-17.4-11.7c-.5-.3-1-.8-1.3-1.3l-8.2-13.6c-.2-.3-.3-.6-.6-.8l-3.9-3.9v.2c.1,0-11,19.5-11,19.5Z"/>
  <path class="st0" d="M91.9,127.2c0-.2,0-.4-.1-.7l-4.1-14.7c0-.4-.3-.7-.4-1l-3.8-6.3c-.6-1-1.5-1.7-2.6-1.9l-26.3-6.8c-.6-.1-1.3-.1-1.9,0l-5.9,1.3c-.7.2-1.4.6-2,1.1l-14.2,13.7c-.6.6-1,1.3-1.2,2.1l-2.6,12.5c0,.3-.1.6-.3.9l-5.7,12.7c-.2.5-.4,1-.4,1.6l-.6,17.6c0,.9.3,1.9.9,2.7l5.3,6.8h0c.8,1.1,2.2,1.7,3.6,1.6l3.3-.2c1,0,1.8-.4,2.5-1.1l25.3-23c.5-.5,1.1-.8,1.8-1l16.9-4.2c.2,0,.7-.2.7-.2l9.8-4.2c1.7-.7,2.7-2.5,2.5-4.3l-.5-4.8Z"/>
  <path class="st0" d="M597.7,206.8c.2,2.9,3.1,4.7,5.8,3.6l5.4-2.3c.3-.1.7-.3,1-.6l20.2-16.1c0,0,.2-.2.2-.2l26.2-23.5c.3-.3.6-.4.9-.6l-8.2-8.5c-.3-.3-.5-.6-.7-.9l-12.7-23.3-10.6-20.4-9.2-18.5c-.2-.3-.3-.6-.6-.9l-8.2-9.2c-.6-.6-1.3-1-2.1-1.3l-4.3-1.1.3,3.7v27l-2.1,19.7-2,15.4v.7l.7,20.7v.3l-.7,23v.3l.6,12.9h0Z"/>
  <path class="st0" d="M599.7,67.2c.1,1.8,1.4,3.3,3.1,3.7l9.1,2.3c.8.2,1.6.7,2.1,1.3l11.8,13.2c.2.3.4.6.6.9l9.9,19.8,10.5,20.2,11.9,21.8c.2.4.4.7.7.9l8.6,9c1.1,1.2,2.9,1.6,4.4,1l9.3-3.2c.5-.2,1.1-.2,1.7-.2l19.8,1.3c1.2,0,2.3-.3,3.2-1.2l9-8.8h0c0,0,.3-.2.3-.2l29.8-23c.2,0,.4-.3.4-.3l19.3-11.5c1.4-.8,2.2-2.3,2-3.9l-1.8-24.4c0-.6-.2-1.2-.5-1.7l-9.5-17.5c-.2-.3-.2-.6-.3-.9-8.5-.8-15.7-1.4-17.6-1.5h-.3c-2,0-8.3,0-29.8,0-1.7,0-3.3,1.1-4,2.7l-2.3,6c0,.1-.1.4-.1.4l-1.9,7.2c-.2.7-.2,1.5,0,2.2l3.1,11.1c.3,1,.9,1.8,1.7,2.3l6,4c.9.6,1.9.8,3,.6l9.3-1.5c3.3-.5,6.5,1.8,7,5.1s-1.8,6.5-5.1,7l-13.3,2.1c-.3,0-.7,0-1,0-1.2,0-2.4-.4-3.4-1l-12.6-8.4c-1.2-.8-2.1-2-2.5-3.5l-.3-1.2c-.4,1-1.1,1.8-2,2.5l-11.9,8.4c-1,.7-2.3,1.1-3.6,1.1s-1,0-1.5-.2l-14-3.5c-3.3-.8-5.3-4.2-4.5-7.5.8-3.3,4.2-5.3,7.5-4.5l9.4,2.3c1.2.3,2.4,0,3.4-.7l5.7-4c.6-.4,1.1-1,1.4-1.7l5.5-12.1c0-.2.2-.4.2-.7l2.6-9.8c0-.1.1-.4.1-.4l2.3-6c.6-1.7.1-3.6-1.3-4.7l-27-21.8c-1-.8-1.7-1.8-2.3-2.9l-1.7.6c-.6.2-1.2.3-1.8.3l-17.5.7-25.5.7h-.4l-12.5,1.6c-2.1.3-3.7,2.1-3.7,4.3l.4,11.5,1.1,13.6Z"/>
  <path class="st0" d="M440.2,167.1l25.5,12c.5.2,1,.6,1.4,1l19.8,23.1c.1.2.5.5.5.5l18.2,15.4c.3.2.5.5.7.8l12.5,18.3c.3.4.6.8,1,1.1l8,5.6c2.8,2,3.5,5.8,1.5,8.6-1.2,1.7-3.1,2.6-5,2.6s-2.4-.4-3.5-1.1l-9.9-6.9c-.4-.3-.7-.7-1-1.1l-12.8-18.8c-.2-.3-.4-.6-.7-.8l-17.7-15c-.2-.1-.5-.5-.5-.5l-18.7-21.8c-.4-.4-.9-.8-1.4-1l-18.9-8.9c-1-.4-2-.5-3-.2l-10.9,3.1c-1,.3-1.7.9-2.3,1.6l-9.5,13.8c0,.1-.3.4-.3.4l-8.6,9.5c-1.5,1.7-1.4,4.3.3,5.9l4.3,3.9c.2.2.5.6.5.6l10.6,14.5,11.3,14.1c.5.6,1.2,1.1,2,1.3l12.9,4.2c.5.2,1,.2,1.5.2l17.7-.9c.9,0,1.8.1,2.7.5l22.5,9.3c.7.3,1.3.8,1.8,1.5l13.2,18.8c.6.8.8,1.8.7,2.8l-1.8,17.9c0,.5,0,1,.1,1.5l3.2,11.8c.2.6.4,1.1.8,1.6l2.7,3.3c1.9,2.3,5.4,2,6.9-.6l6.6-11.7c.2-.3.3-.5.6-.7l27.8-30.7c0,0,.2-.2.2-.2l20.5-25.5c.7-.9,1-2,.9-3.1l-1.5-11.9c0-.7-.3-1.4-.7-1.9l-27.1-38.5-33.8-46c-.1-.2-.3-.5-.3-.5l-16.5-29.9c0-.2-.3-.5-.3-.5l-32.8-44c-1.7-2.3-5.2-2.2-6.8.2l-2.5,3.7h0s0,0,0,0h0s0,0,0,0c-.3.4-.7.8-1.1,1.1l-5.5,3.8c-1.1.8-1.8,2.1-1.8,3.4v24.3c0,1.4-1,13.4-1.5,20.2,0,.2,0,.4,0,.7-6,24.3-6.9,26.2-7.2,26.8-.3.7-1,2.4-1.9,4.7-.5,1.3-1,2.5-1.5,3.6l5-1.4c1-.3,2-.2,3,.2Z"/>
  <path class="st0" d="M537.7,133.4c0,.2.3.5.3.5l32.8,44.6,14.2,20.2-.2-4.7v-.3l.7-23v-.3l-.7-21.3v-.7l2.1-16.2,2-18.9v-25.7l-.2-2.4c-.2-2.1-1.9-3.7-4-3.8l-9.8-.3c-.3,0-.5,0-.8,0l-15.2,2.4c-.3,0-.7.2-1,.3l-11.9,5.3h0s0,0,0,0h0c-.2,0-.7.4-.7.4l-20,13.8c-1.7,1.2-2.3,3.6-1.3,5.4l13.6,24.6Z"/>
  <path class="st0" d="M361.7,143.8l11.8,8c.8.6,1.4,1.4,1.7,2.4l5.4,21.8,4.1,19c.2.8.7,1.6,1.3,2.2l3.7,3.4c1.7,1.6,4.4,1.4,5.9-.3l8-8.7c.1-.1.4-.4.4-.4l11.1-16.2c.4-.6,1-1.2,1.7-1.6,1.4-2.6,3.9-8.9,5.6-13,1-2.6,1.9-4.6,2.3-5.5,0-.1.1-.2.2-.4.7-2.1,3.5-13.1,6-23.1,0-.2,0-.4,0-.6.7-8.2,1.3-17.2,1.3-18.3v-15.9c0-2.3-1.9-4.2-4.2-4.2h-11.4c-.3,0-.7,0-1-.1l-16.6-4c-1-.3-2-.1-2.9.3l-12.6,6.7c-.3.1-.6.3-.8.6l-11.9,10.7c0,1,0,1.9-.5,2.7l-8.8,19c-.2.4-.3.8-.4,1.3h0,0c0,0-1.1,10.4-1.1,10.4-.1,1.6.6,3,1.8,3.9Z"/>
  <path class="st0" d="M578.8,275.8l-10.8,13.4-.2.2-26.8,29.6c-.2.2-.4.5-.6.7l-9.3,16.5c-1,1.9-.5,4.2,1.2,5.4l16.2,11.9c.3.2.7.4,1,.5l20.3,7.7c.2,0,.5.3.5.3l9.6,5.3c1.7,1,3.9.6,5.2-.9l4.3-5c.4-.4.7-1,.9-1.6l8-28c.9-3.2,4.3-5.2,7.6-4.2,3.3.9,5.2,4.3,4.2,7.6l-8.8,30.5c-.2.6-.5,1.1-.9,1.6l-6.1,7.1c-1.1,1.3-1.3,3-.7,4.5l9.2,20c0,.1.2.3.2.3l10,17.3c0,0,.2.3.2.3l3.9,5.5c1.1,1.7,3.3,2.2,5.1,1.4l6-2.7c.5-.2,1-.4,1.6-.4l20.9-1c3.4-.1,6.3,2.5,6.4,5.9.2,3.4-2.5,6.3-5.9,6.4l-18.5.9c-.6,0-1.1.2-1.6.4l-9.3,4.3c-.7.3-1.2.8-1.7,1.4l-13,18.3c-1.2,1.7-3.1,2.6-5,2.6s-2.5-.3-3.6-1.1c-2.7-2-3.4-5.8-1.4-8.6l10.5-14.8c1-1.4,1-3.4,0-4.8l-4.8-6.8c0,0-.2-.3-.2-.3l-10.6-18.4c0-.1-.2-.4-.2-.4l-5.3-11.6c-1.3-2.9-5.1-3.3-7.1-.9l-1.5,2c-.1.2-.4.6-.4.6l-7.6,14c-.1.3-.3.6-.3.9l-6.4,22.4c0,.1-.1.4-.1.4l-6.8,18c0,.3-.2.5-.3.7l-4.9,8c-1.1,1.8-.7,4.1.9,5.4l14.3,11.8h0s.2,0,.2,0c.2.2.5.4.8.5l15.9,8c.1,0,.4.3.4.3l14.6-4.2c.3,0,.7-.2,1-.2l28.8-1h.2l18.8.4c1.3,0,2.6-.6,3.4-1.7l16.9-22.4c.1-.2.5-.5.5-.5l19.9-18.5c1.3-1.2,1.7-3.1,1-4.7l-6.7-15.4-9.1-19.6c-.2-.4-.4-.7-.7-1l-16.8-18.8c-.2-.3-.4-.5-.6-.8l-21.3-40.1c0-.2-.4-.6-.4-.6l-31.4-40.1-16.3-19.9c-1.6-2.1-4.8-2.1-6.5,0Z"/>
  <path class="st0" d="M897.8,76.9l-14.5-1.1c-.7,0-1.4-.3-2-.7l-15.1-10.2c-.2-.2-.7-.5-.7-.5l-1.1-1-.2,3.1c0,.2,0,.6,0,.6l-2.2,12.9c-.1.6,0,1.2,0,1.8l2.2,7.9c.2.8.7,1.5,1.3,2l7.6,6.6c.4.4.9.7,1.4.8l12.8,4.1c.2,0,.5.2.5.2l11.8,5.7c.1,0,.2,0,.3.1v-32.7l-.9.2c-.4,0-.9,0-1.3,0Z"/>
  <path class="st0" d="M868.4,23.7h-6.2c-3.8-.2-5.8,4.4-3,7.1l.2.2c.6.5,1,1.2,1.2,1.9l3.6,12.9c.2.8.6,1.5,1.2,2l7.7,7c.1.1.4.3.4.3l11.9,8c.6.4,1.3.7,2,.7l9.3.7c.4,0,.9,0,1.3,0l1.9-.5V21.1l-4,.5-27.6,2.1Z"/>
  <path class="st0" d="M894.5,120.3l-11.2-5.4c-.2,0-.5-.2-.5-.2l-14.4-4.6c-.5-.2-1-.5-1.4-.8l-12.3-10.6c-.6-.6-1.1-1.3-1.3-2l-1.8-6.5c-.8-3-4.4-4-6.7-2.1l-7.9,6.6c-.5.4-1.1.7-1.8.9l-14.6,3.3c-.4,0-.9.1-1.3.1-2.8,0-5.3-2-6-4.8-.7-3.3,1.4-6.6,4.7-7.3l11.7-2.6c.7-.1,1.3-.4,1.8-.9l10.7-9,.4-.4,8.6-9.4c.7-.7,1.1-1.6,1.1-2.6l.7-10.4c0-.5,0-1-.1-1.4l-3-10.8c-.2-.7-.6-1.4-1.2-1.9l-7.3-6.9c-.2-.1-.5-.4-.5-.4l-15.1-10.7c-.4-.3-.9-.5-1.3-.6l-12.1-3.2c-.5-.1-.9-.3-1.3-.6l-7.3-5c0,.2,0,.5-.2.7l-9.8,30.8c-.1.4-.3.7-.5,1l-11.2,16.8c-.9,1.3-1,3-.2,4.3l7.3,13.4c.3.5.5,1.1.5,1.7l2.4,32.2c.1,1.2.7,2.3,1.7,3.1l12.7,9.2,18.9,14c.1.1.4.3.4.3l37.4,35.7h0s0,0,0,0c.8.7,1.8,1.2,2.9,1.2h27c.5,0,1,0,1.4.3l5.7,2.1v-52l-4.6-4c-.3-.2-.6-.4-1-.6Z"/>
  <path class="st0" d="M777.1,135.8l-17.5,10.4c-.2,0-.4.3-.4.3l-27.5,21.2c-.1,0-.3.3-.3.3l-10.1,9.8c-1.4,1.3-1.7,3.5-.7,5.2l4.3,7,9.2,14.2c.3.5.5,1,.6,1.6l2.1,12.2h0s0,0,0,0c.2,1.1.8,2.1,1.7,2.7l12.5,8.7c.6.3,1.2.6,1.9.7l18.2,2.2c.6,0,1.3,0,1.8-.2l11.3-3.8c.9-.3,1.6-.9,2.1-1.6l10.1-14.9c.2-.4.5-.7.9-1l20-15.7c.3-.2.6-.4.9-.5l15.9-7.2c.4-.2.9-.3,1.3-.4l5.5-.6-31.4-29.9c-.1-.1-.4-.3-.4-.3l-17.5-13-10-7.2c-1.3-1-3.1-1.1-4.6-.2Z"/>
  <path class="st0" d="M622.8,701.2l-13.9-8.6c-.4-.3-.8-.6-1.1-1l-11.9-15.7c0-.1-.3-.3-.3-.3l-12.3-13.5c-.6-.7-1.3-1.1-2.2-1.3l-12.6-2.9c-.3,0-.5,0-.8,0l-20.6-.8c-.6,0-1.3,0-1.8.3l-11.5,5c-1.5.7-2.5,2.2-2.5,3.8v8.6c0,.4,0,.7.1,1.1l10.9,41.2h73.8l9.9-13.3-3.2-2.5Z"/>
  <path class="st0" d="M540.6,550.6l-18.6-15.1c-.2-.2-.6-.4-.6-.4l-27.2-15.6s-.2-.1-.2-.1l-4.1-2.7c-2.5-1.7-6-.1-6.4,2.9l-1.4,9.6c0,.4,0,.7,0,1.1l3.2,26.3v.6l-1,34.6v.5l-4.4,29.9c-.2,1.3.2,2.5,1,3.4l13.4,14.8c.3.4.6.6,1,.8l11.1,6.4c2.8,1.6,6.3-.4,6.3-3.6v-12.7c0-.3,0-.7.1-1l12-46.5h0s0,0,0,0c.1-.4.3-.8.5-1.1l16.1-26.7c1.1-1.8.6-4.1-1-5.4Z"/>
  <path class="st0" d="M725.8,681.5c-.1-.4-.1-.8-.1-1.2v-2.7c.2-2.3-1.7-4.3-4-4.3l-13.7-.3c-.4,0-.7,0-1.1-.2l-13.6-4h0c-.4-.2-.8,0-1,.3l-2.3,4.3c-.2.3,0,.8.2,1l11.6,9.4c.2.2.4.3.6.4l12.9,7c.5.3,1.1.5,1.7.5l5.7.3c2.8.2,5-2.5,4.3-5.2l-1.4-5.6Z"/>
  <path class="st0" d="M391.2,472.6l7-4.2c.5-.3,1.1-.5,1.7-.6l22.2-2.5c.4,0,.7,0,1.1,0l20.4,3c.8.1,1.6.5,2.2,1l16.2,14.3c.1,0,.4.3.4.3l6.9,4.7c1.9,1.3,4.5.8,5.8-1.1l11.6-17.1c0,0,.2-.3.2-.3l8-10.1c.9-1.1,1.2-2.6.7-4l-4.7-13.7c0-.2-.2-.6-.2-.6l-13.5-26.1c0-.1-.3-.4-.3-.4l-11.3-16.5c-.6-1-1.6-1.6-2.8-1.8l-17.7-2.8c-.2,0-.5,0-.5,0l-27.8-.9c-.4,0-.8,0-1.2.1l-9.1,2.4c-1.8.5-3.1,2.2-3.1,4v9.7c0,.4,0,.8-.2,1.1l-4.7,16.7c-.4,1.5-1.7,2.7-3.2,3l-16.4,3.3c-.4,0-.8.2-1.2.4l-10.9,6c-1.4.8-2.3,2.4-2.1,4l.7,8.5c0,.7.3,1.3.6,1.9l7.4,11.8c.4.7,1.1,1.3,2,1.6l12.2,4.9h0s0,0,0,0c1.2.5,2.6.4,3.7-.3Z"/>
  <path class="st0" d="M721.5,499.5l-2.9,11.5c0,.3-.1.6-.1.9-.3,12.5-.6,17.5-.9,19.8l1.7,1.2c.8.6,1.5,1.4,2,2.3l3.5,7.3,3.4-3.4c.2-.2.6-.5.6-.5l13-9.2c2.8-2,6.6-1.3,8.6,1.5,2,2.8,1.3,6.6-1.5,8.6l-12.2,8.6c-.2.1-.4.3-.5.4l-10.2,10.2c-.6.6-1,1.3-1.1,2-.3,1.4-.7,3.1-1.1,4.9-.6,2.7,1.5,5.2,4.3,5.1l5.2-.3c.2,0,.6,0,.6,0l18.5-3.7c.2,0,.5,0,.7,0l16.5-.4h0s0,0,0,0c.5,0,1-.1,1.4-.3l9.8-4c2.5-1,3.4-4,1.9-6.2l-20.2-29.2c-.1-.2-.3-.6-.3-.6l-16.9-26.8c-.1-.2-.5-.6-.5-.6l-8.3-9c-1.6-1.7-4.4-1.7-6,0l-7.9,8.1c-.5.5-.9,1.2-1,1.9Z"/>
  <path class="st0" d="M894.5,341.1c-2.7-.6-5.2,1.6-5,4.3l2,38.4.4,1.6,8-.9v-42.3c-.1,0-.2,0-.3,0l-5.1-1.1Z"/>
  <path class="st0" d="M890.4,521.9c-.7,1-1,2.1-.7,3.3l2.3,11.2c0,.5.3,1,.5,1.3l7.6,12.7v-42l-2.4,3.6-7.3,9.9Z"/>
  <path class="st0" d="M772.1,578.4l-17.6.5c-.2,0-.5,0-.7,0l-9.4,1.9,3.4,3.4c.8.8,1.2,1.9,1.2,3v17c0,.5,0,1-.3,1.5l-6.8,18c-1,2.5-3.3,4-5.8,4s-1.4-.1-2.2-.4c-3.2-1.2-4.8-4.8-3.6-8l6-15.9c.2-.5.3-1,.3-1.5v-9.6c0-1.1-.4-2.2-1.2-3l-5.6-5.6c-.3-.2-.4-.6-.6-.8l-13.4.6c-.6,0-1.1.2-1.6.4l-14.4,6.6c-.4.2-.8.4-1.1.7l-12.7,11.5c-1.2,1.1-1.6,2.8-1.2,4.3l9,29.5c0,.4.2.7.2,1.1l.5,15.7c0,1.8,1.3,3.3,3,3.9l11.2,3.3c.4,0,.7.2,1.1.2l15.6.3c.8,0,1.6-.2,2.3-.6l13.6-8.4c17.2-12,19.6-12.8,21.5-12.9,1-.2,3.8-.9,6-1.5,9.3-2.3,13.5-3.3,15.9-3.3s12.9-.7,21.2-1.2c.7,0,1.4-.3,2-.7h0s0,0,0,0l11.9-8c.2-.1.5-.4.5-.4l8.1-7.6c1.5-1.4,1.7-3.7.6-5.4l-11.9-17.9c-.1-.2-.5-.6-.5-.6l-20.6-21c-1.2-1.2-3-1.6-4.6-1l-18.2,7.3c-.4.2-1,.3-1.4.3Z"/>
  <path class="st0" d="M78.6,538.5l14.4-10.9c.4-.3.8-.7,1.1-1.2l6.8-11.4c1.4-2.3.2-5.3-2.4-6.1l-19.6-5.9c-.5-.2-1-.4-1.4-.8l-23.4-19.1c-.8-.7-1.5-1.6-1.9-2.7v-.3c-.1,0-2.7,1.2-2.7,1.2l-14.8,15.7c-.4.5-.8,1-1,1.7-1,3.3-4.1,14.4-5,17.5h0s0,0,0,0c-.1.6-.2,1.2,0,1.7,1.3,8.6,1.9,13.8,2.2,17,.2,2,1.8,3.6,3.9,3.7l16,1c1.1,0,2,.5,2.8,1.3l2.6,2.8c1.1,1.2,2.8,1.6,4.4,1.1l16.9-5.8c.4-.1.8-.3,1.2-.6Z"/>
  <path class="st0" d="M49.8,443.7l1.6,1c.8.5,1.4,1.3,1.7,2.1l4.4,12.2c.8,2.3,3.5,3.4,5.7,2.3l5.8-2.7,13.5-6.8c3-1.5,6.7-.3,8.3,2.7h0s0,0,0,0h0s0,0,0,0c1.5,3,.3,6.7-2.8,8.2l-13.6,6.8-5,2.4c-2.8,1.3-3.3,5-.9,7l14.9,12.2c.4.4.9.6,1.4.8l15.1,4.6c2.6.8,5.2-1,5.4-3.7l.6-7.6,1.6-15.8c.5-4.7,6.1-7.7,10.9-3.7,1.1.9,1.6,2.3,1.5,3.7l-1.7,17-.5,6c-.2,2.7,2.3,5,5,4.4l12.6-2.4c.4,0,.8,0,1.2,0l13.3,1.2c2.8.3,5.1-2.3,4.5-5l-3-13.7c0-.2,0-.5,0-.7l-2-40.6c0-1.6-1.1-3-2.6-3.6l-8.8-3.7c-.2,0-.5-.3-.5-.3l-28.3-16.8c-.1,0-.4-.3-.4-.3l-15.9-10.4c-2-1.3-4.6-.7-5.8,1.3l-2.7,4.2c-.2.3-.4.6-.7.8l-11.9,11.3c-.2.2-.5.4-.5.4l-16.9,11.5c-.5.3-.8.7-1.1,1.1l-4.5,6.8c-1.3,2-.7,4.7,1.3,5.9Z"/>
  <path class="st0" d="M411.9,633.6c.5,0,1.1,0,1.6-.3l17.4-6.3c.2,0,.5-.1.5-.1l27.3-6.6c1.7-.4,2.9-1.7,3.2-3.4l3.8-26.1v-.5l.9-32.2v-.6l-3.3-27.5c0-.4,0-.7,0-1.1l3.7-24.2c.3-1.6-.4-3.2-1.8-4.1l-10.5-7.1c-.2,0-.4-.3-.4-.3l-14.1-12.4c-.6-.5-1.4-.9-2.2-1l-15.2-2.2h-1.1l-17.9,2c-.6,0-1.2.3-1.7.6l-4.5,2.7c-1.2.7-1.9,1.9-2,3.3l-1,13.2v.3l-2.9,20.4c-.7,4.8-6.5,7.4-11.1,3.1-1-.9-1.4-2.3-1.3-3.7l3-21.2v-.3l.8-10.6c.1-1.8-.9-3.5-2.6-4.2l-13.7-5.5c-.8-.3-1.5-.9-2-1.6l-11.1-17.7c-.3-.6-.6-1.2-.6-1.9l-.7-8.2c-.2-2.3-2.1-4-4.4-3.8l-6.2.4c-.4,0-.8,0-1.2.2l-17.7,6.2c-.7.2-1.4.3-2,.3-2.6,0-5-1.6-5.8-4.1-1.1-3.2.6-6.7,3.8-7.9l19.4-6.8c.4-.1.8-.2,1.2-.2l15.6-.8c.6,0,1.2-.2,1.8-.5l16.4-9c.4-.2.8-.3,1.2-.4l10.8-2.2c1.6-.3,2.8-1.4,3.2-3l2.2-7.8c.1-.3.2-.7.2-1.1v-8.2c0-1.8-1.2-3.5-3-4l-42.5-12.9c-1-.3-1.9-.3-2.8.1l-34,14.1c-.2,0-.5.3-.5.3l-11.1,6.5c-1.5.9-2.3,2.7-2,4.4l1.7,9.1c0,.3,0,.5,0,.8v9.9c0,.7.2,1.4.5,2l6.4,11.6c.3.4.4.9.5,1.4l7.8,52.2c.2,1.3,1,2.4,2.1,3l18.3,10.1c.4.2.7.4,1,.7l25.9,26.8,7.7-1.7c1.2-.3,2.5,0,3.5.8l16.8,13.2c.3.3.6.6.9,1l2,2.9c1.1,1.6,3.3,2.3,5.1,1.5l8.6-3.7c.9-.4,1.8-.5,2.7-.3l25,5.9c3.3.8,5.4,4.1,4.6,7.4-.8,3.3-4.1,5.4-7.4,4.6l-21-5c-.9-.2-1.8,0-2.6.3l-6,2.6,2.2,3.2c.2.3.4.5.5.8l10.3,22.1c.4.7.4,1.6.4,2.3l-1.5,11.1c-.4,3.1-3,5.3-6.1,5.3s-2.3-.4-3.5-.8c-1.9-.7-3-2.5-2.8-4.5l1.3-9.2c.1-.8,0-1.6-.4-2.3l-8.4-18c0-.2-.3-.6-.3-.6l-11.6-17.1c-.2-.4-.5-.7-.9-1l-10.7-8.4c-1-.8-2.3-1-3.5-.8l-4.6,1c-.1.2-.2.3-.4.5-.6.6-1.3,1-2,1.4-.5.3-1,.6-1.4,1l-6.4,7.7c-.6.7-1.3,1.1-2.1,1.3l-12.5,3.5c-1.6.5-2.9,1.9-3,3.6l-.7,7.1c0,.3-.1.6-.2.9l-5.9,17.1c0,.3-.2.5-.3.7l-4.2,7.2h0s0,0,0,0h0s-.2,0-.2,0c-1.3,2.3-.1,5.4,2.5,6.1l8.2,2.3c.4.1.8.3,1.1.5l25.7,16.8c0,0,.3.2.3.2l14.3,10.9,2.4-2.4c1.9-1.8,4.4-2.7,7-2.7l30.3,1.3Z"/>
  <path class="st0" d="M170.2,629.3c0-.2-.1-.4-.1-.7l-5.7-63.5-5.5-53.5-.7-3.1-21.2-2c-.4,0-.8,0-1.2,0l-19.7,3.8-.2,2c0,.9-.4,1.8-.8,2.7l-11.7,19.8c-.3.4-.7.9-1.1,1.2l-17.9,13.5c-.3.3-.7.5-1.2.6l-16.1,5.5,4.5,4.7c.6.6,1,1.3,1.1,2.2l4.1,24.8c0,.5.3,1,.5,1.5l4.2,7c.7,1.1,1.9,1.9,3.2,2l17,1.4c.4,0,.7,0,1,0l15.8-2.7c.9-.2,1.7-.6,2.3-1.2l8.2-8.2c2.4-2.4,6.3-2.4,8.7,0h0s0,0,0,0c2.4,2.4,2.4,6.3,0,8.7l-10.9,10.9c-.6.6-1.4,1-2.3,1.2l-20.9,3.6c-.4,0-.7,0-1,0h-.5l-12.9-1.1,18.9,13.9c0,0,.3.2.3.2l23,14.4c.3.2.7.4,1,.5l29.3,8.6c0,0,.2,0,.2,0l6.9,2.5c3.2,1.1,6.3-1.7,5.5-5l-4.1-16.4Z"/>
  <path class="st0" d="M202.6,686.4c-1.3-1.1-3.2-1.3-4.7-.5l-32.2,17.5s-.2.1-.2.1l-29,13.5h51.2c2.3-1.9,5.7-1.9,7.9,0h41.9l-16.9-15.4-17.9-15.2Z"/>
  <path class="st0" d="M553.5,541.6l14.2-8.9c1.2-.7,2-2.1,2-3.5v-28.1c0-1.6-.9-3-2.3-3.7l-10.3-5.2c-.3-.1-.5-.3-.8-.5l-19.8-16.2c-.4-.4-1-.6-1.5-.8l-20.4-5.7c-1.6-.4-3.4.1-4.4,1.4l-8.3,10.5c0,0-.2.3-.2.3l-11,16.2c-1.3,2-.8,4.6,1.2,5.9l8.7,5.6s.2.1.2.1l27.8,15.9c.2.1.6.4.6.4l19.7,16h0c1.4,1.1,3.3,1.2,4.9.3Z"/>
  <path class="st0" d="M551.3,428.5c0-.1.1-.4.1-.4l6.6-23.2c0-.3.2-.6.3-.9l8.8-16.1c.1-.2.4-.6.4-.6l3.9-4.9c1.6-2,1-5-1.3-6.2l-5.3-2.9c-.2,0-.5-.3-.5-.3l-21.1-8c-.3-.1-.7-.3-1-.5l-18.4-13.5c-1.4-1-3.3-1.1-4.8,0l-15.8,10.6c-.3.3-.6.5-.9.9l-19.3,24.1c-1.1,1.4-1.2,3.4-.2,5l9.6,14c0,.1.3.4.3.4l14.6,28.4c0,.2.2.6.2.6l4.3,12.3c.4,1.3,1.5,2.3,2.8,2.6l20.3,5.7c1.8.5,3.7-.3,4.7-1.9l5-8.2h0s-.2,0-.2,0c.1-.2.3-.4.3-.7l6.2-16.4Z"/>
  <path class="st0" d="M215.2,234.9l10.1,2.9c.2,0,.6.1.6.1l4.1.6c1.9.3,3.7-.9,4.4-2.6l7.3-19.1c.3-.6.3-1.3.3-2l-2.3-21.2c0-.3,0-.7,0-1l3.2-22.1v-.3l2-22.8c.1-1.6-.6-3.1-2-4l-2.9-1.7c-.6-.3-1.2-.5-1.8-.6l-17.6-1.5h-.7l-21.2,1.5c-.8,0-1.6.4-2.3.9l-10.1,7.7c-1.8,1.3-2.2,3.9-.9,5.7l7.6,10.9c.5.8.8,1.7.7,2.6l-.9,13.9c0,1,.3,2,.9,2.9l10.4,13.1c.5.6.7,1.3.9,2l2.8,17.7c0,.2.1.6.1.6l4.2,13h0s.1,0,.1,0c.4,1.3,1.5,2.3,2.8,2.7Z"/>
  <path class="st0" d="M697,453.3l-15.6,14.5c-.2.1-.5.5-.5.5l-19.5,25.8c-.5.7-.8,1.6-.8,2.5v28.3c0,.6-.2,1.3-.5,1.9l-11.9,23.3c-.7,1.4-.6,3,.3,4.3l19.5,27.4s.1.2.1.2l6.8,8.5c1.5,1.9,4.3,2.1,6.1.5l11.2-10.2c.4-.3.7-.5,1.1-.7l16.4-7.6h0c.5-2.6,3.9-17.5,3.9-17.5.3-1.1.8-2.2,1.7-3l.4-.4-4.3-8.9c-.3-.6-.8-1.2-1.3-1.6l-9-6.4c-.6-.4-1.3-.6-2-.7l-15.9-1.7c-3.4-.3-5.9-3.3-5.5-6.7s3.4-5.9,6.7-5.5l18.6,1.9c1.1.1,2,.5,2.9,1.1.2-3.8.3-8.6.4-13,0-.3,0-.6.1-.9l4-16h0s0,0,0,0c.2-.7.5-1.4,1-1.9l10.9-11.2c1.5-1.6,1.6-4.2,0-5.8l-19.5-20.8c-1.6-1.7-4.2-1.8-5.9-.2Z"/>
  <path class="st0" d="M837.6,199.4l-12.7,5.8c-.3.1-.6.3-.9.5l-17.4,13.6c-.3.3-.6.6-.9,1l-11.4,16.7c-.5.7-1.3,1.3-2.1,1.6l-17.4,5.8c-.7.2-1.3.3-2,.3s-.5,0-.7,0l-23.6-2.9c-.7,0-1.3-.3-1.9-.7l-10-6.9-.4,4.6c0,.5-.2,1-.4,1.5l-5.1,10.1c-.2.3-.3.8-.4,1.2l-2.1,12.9c0,.6,0,1.3.1,1.9l5,16.2c.2.5.2,1,.2,1.5l-1.4,22.8-1.1,14.2c0,.9.1,1.8.6,2.5l3.8,6.2,8,14.1h1.4l52.4-37c.3-.2.7-.6.7-.6l14.5-15.4-4.2-1.3-20.6-.6c-.7,0-1.3,0-1.8.3l-7.1,3.2c-.3.1-.7.3-1,.6l-10.6,9c-2.6,2.2-6.5,1.9-8.7-.7-2.2-2.6-1.9-6.5.7-8.7l12-10.2c.3-.2.7-.4,1-.6l3.5-1.6-2.6-3.1c-.3-.3-.6-.6-1-.9l-10.5-6.6c-2.9-1.8-3.8-5.6-2-8.5,1.8-2.9,5.6-3.8,8.5-2l12.2,7.7c.4.2.7.5,1,.9l6,7.3c.7.9,1.9,1.5,3.1,1.5l19.4.6c.4,0,.7,0,1.1.2l5.2,1.6c2.4.7,4.8-.8,5.3-3.2l7.2-38.4c0-.2.1-.5.1-.5l9.7-31.6h0s0,0,0,0h0s0,0,0,0c.2-.6.5-1.1.9-1.6l5-5.4-5.3.6c-.5,0-.9.2-1.3.4Z"/>
  <polygon class="st1" points="894.7 696.7 894.7 696.7 894.7 696.7 894.7 696.7"/>
  <polygon class="st1" points="206.7 648.4 206.7 648.4 206.7 648.5 206.7 648.4"/>
  <polygon class="st1" points="346.3 363.6 346.3 363.6 346.3 363.6 346.3 363.6"/>
  <polygon class="st1" points="770.8 31.8 770.8 31.8 770.8 31.8 770.8 31.8"/>
  <path class="st1" d="M867.9,11.3h-.4l-25.5-.7c-.3,0-.7,0-1-.1l-11.3-2.9c-.8-.4-1.7-.6-2.5-.7l-9.9-2.6c-.5-.1-.9-.4-1.3-.6l-5.1-3.5h-31.5v4.4c0,.4,0,.9-.2,1.3l-8,25.1c-.1.4-.3.7-.5,1h0s-1.4,2.1-1.4,2.1c-1.8,2.7-5.8,2.4-7.2-.5l-4.1-8.5c-.2-.3-.4-.7-.7-1l-13.3-14.6c-.4-.4-.7-1-.9-1.6l-2.4-7.8h-12.9l4.4,14c.2.6.5,1.1.9,1.6l14,15.3c.3.3.5.6.7,1l4.2,8.6c1.4,2.9-.9,6.2-4.1,6-8.6-.8-10.5-.8-11.4-.7h0c-2.4,0-18.5,0-30.8,0-1,0-1.8-.3-2.6-.9l-19.7-15.9c-2.1-1.7-2-5,.2-6.6l6.8-4.8c.3-.2.6-.5.8-.8l13.2-16.2s.2-.2.3-.3h.1c0-.1-15.9-.1-15.9-.1l-6.2,7.7c-.2.3-.5.6-.8.8l-1.7,1.2c-2.4,1.7-5.8.4-6.5-2.5l-1.7-7.2h-19l5,21.7-1.7.6-42.5,1.3h-.4l-12.2,1.5c-2.3.3-4.4-1.3-4.7-3.6l-1.6-13.1c0-.4-.1-.7-.3-1.1l-3-7.4h-13.4l4.3,10.7c.1.3.2.7.3,1.1l1,8.5c.3,2.7-2,5-4.7,4.7l-7.2-1s-.3,0-.4,0l-24.9-6s-.1,0-.2,0l-20.6-6.2c-.6-.2-1.2-.5-1.7-1l-8.5-8.1c-.3-.2-.5-.5-.7-.8l-1.1-1.7h-14.6l6,9.5c.2.3.4.6.7.8l4.8,4.6c1.5,1.4,1.7,3.8.5,5.5l-2.6,3.6c-.4.5-.7,1.1-.7,1.7l-2.2,12.3c-.6,3.3,1.7,6.6,5,7.1.4,0,.7,0,1.1,0,2.9,0,5.5-2.1,6-5.1l1.7-9.5c.1-.7.3-1.2.7-1.7l2-2.7c1-1.4,2.9-2,4.6-1.5l16.3,4.9s.1,0,.2,0l25.9,6.3s.3,0,.4,0l12.4,1.7c2,.3,3.6,2,3.6,4l.4,12.5.8,10.1c.2,2.5-1.8,4.6-4.3,4.5l-8.6-.3c-.3,0-.5,0-.8,0l-17.9,2.9c-.3,0-.7.2-1,.3l-14.4,6.5c-.2,0-.4.2-.7.4l-20.8,14.4c-1.9,1.3-4.4.9-5.7-1l-33.8-45.3c-.2-.3-.4-.7-.6-1L461.6.4c0,0,0-.1,0-.2h-36.7c-.3.6-.8,1.1-1.4,1.4l-7.8,4.5s-.2.1-.3.2l-18.3,12.8c-.2.2-.5.3-.7.4l-6.7,2.9c-1.6.7-3.5.3-4.7-1l-11.8-12.4c-2.4-2.5-6.3-2.6-8.7-.3-2.5,2.3-2.6,6.2-.3,8.7l14.3,15.1c.7.6,1,1.5,1.1,2.4l1.6,15.6c.3,3.2,3,5.6,6.1,5.6h.6c3.4-.4,5.9-3.3,5.5-6.7l-1.2-11.6c-.2-1.8.8-3.5,2.5-4.3l7.6-3.3c.3-.1.5-.3.7-.4l18.9-13.2s.2-.1.3-.2l6.1-3.6c2.3-1.3,5.1-.3,6,2.2l16.3,44c0,.3.3.5.4.8l-7.2,10.9c-.3.4-.6.8-1.1,1.1l-10.1,7c-.7.5-1.5.7-2.4.7h-12.3c-.3,0-.6,0-1-.1l-19.6-4.7c-1-.2-2,0-2.9.4l-18.1,9.5c-.3.2-.6.3-.8.6l-7.5,6.7c-.4-1.3-1.2-2.5-2.4-3.3l-18.7-12.6c-.5-.4-.9-.8-1.3-1.3l-7.6-12.6c-.2-.3-.4-.6-.6-.8l-6.3-6.2c-1-1-1.4-2.5-1.1-3.9l6.1-26.5v.3s0,0,0,0c0,0,0-.3.1-.6L341.1.2h-45.5c-.3.1-.6.2-.9.3l-33.4,6.4s-.4,0-.6,0l-27,.9h-.7l-17.1-2.3c-2.5-.4-4.2-2.9-3.4-5.3h0s-12.7,0-12.7,0l-1.2,4.1c-.4,1.2-1.2,2.1-2.3,2.6l-9.2,4c-24.4,9.6-37.8,15-45.3,18-1.6.7-3.3.3-4.6-1l-11.9-12.2s-.2-.2-.3-.3l-7.9-9.8s-.1-.2-.2-.3l-3.6-5.3H46.7c.4.3.7.6,1.2.9l7.2,4.2c2,1.1,2.7,3.6,1.6,5.6l-1.8,3.3c-.3.5-.7,1-1.2,1.4l-13.8,10c-.6.4-1.2.6-1.9.7l-18.3,2.6c-.6,0-1.2,0-1.7,0l-15.1-4.2c-.9-.3-1.9-.3-2.8,0v12.1l16.7,4.6c.5.1,1.1.2,1.6.2s.6,0,.9,0l10-1.5c2.7-.4,5,1.8,4.8,4.5l-.4,3.9c0,.9.1,1.8.6,2.5l7,11.5c1.2,1.9,3.2,3,5.3,3s2.2-.3,3.2-.9c2.9-1.8,3.8-5.6,2-8.5l-5-8.1c-.5-.8-.7-1.7-.6-2.5l.7-8.2c0-1.2.7-2.3,1.7-3l14.2-10.4c.5-.3.9-.8,1.2-1.4l5.3-9.6c.8-1.4,2.4-2.3,4-2.2l8.9.6c.3,0,.7,0,1,0l12.3-2.2c.7-.1,1.4-.4,1.9-.9l3.9-3.2,5.4,7.9s.1.2.2.3l8.5,10.7s.2.2.3.3l8.8,9.1c1.7,1.7,1.6,4.6-.3,6.1-4,3.3-10.3,8.6-20.4,17.2-.2.2-.4.4-.6.6l-19.8,24.7c-1,1.3-2.7,1.8-4.3,1.4l-24.3-6.2c-.7-.2-1.3-.2-1.9,0L0,88.5v18.8l22.8-5-3.4,3.3c-.6.6-1,1.4-1.2,2.1l-3.1,14.9c0,.3-.2.6-.3.9l-6.1,13.7c-.2.5-.3,1-.3,1.6l-.8,24.4c0,1,.3,1.9.9,2.7l2.8,3.6c1.6,2.1.9,5.1-1.4,6.3L0,180.5v14.8l3.7-2.8s.4-.3.6-.4l18.5-9.1h.5l12.5,9.5c.5.4,1,1,1.3,1.6l7.9,17c1,2.3,3.3,3.6,5.6,3.6s1.7-.2,2.6-.6c3.1-1.4,4.4-5.1,3-8.2l-9.2-19.8c-.3-.6-.7-1.2-1.3-1.6l-5-3.9s.3-.2.4-.3l25.7-23.3c.5-.5,1.1-.8,1.8-1l14.9-3.7s.4-.1.6-.2l10.1-4.3c1.8-.8,3.9-.2,5,1.4l5.4,7.5c.3.4.6.7,1,1l11.2,8.1c1.7,1.2,2.2,3.4,1.3,5.2l-3.2,6.3c-.3.5-.4,1.1-.4,1.7l-.7,20v14.7c0,1.3-.6,2.4-1.5,3.2l-5.8,4.7c-.4.4-.9.6-1.4.8l-16.9,5.2c-.3,0-.5.2-.7.3l-15.2,8s-.4.2-.6.3l-17.4,5.7c-.8.3-1.6.8-2.1,1.5l-13.4,18.7c-.2.3-.4.6-.5.9l-6.8,17.4c-.3.8-.8,1.4-1.5,1.9l-11,7.6c-1.6,1.1-3.7,1-5.2-.3L0,277.1v33.4l4.2,3.8c.5.4.9,1,1.1,1.6l7,18.4c.6,1.6.2,3.4-1.1,4.6L0,348.7v23.5l6.5-4.8s.2-.2.3-.3l16.6-14.7h0s0,0,0,0c1.5-1.3,3.8-1.4,5.4,0l22.2,18.3s.3.3.5.4l26.2,19.4s.4.3.6.4h.2c0,.1-4.3,6.9-4.3,6.9-.2.3-.4.6-.7.8l-10,9.5s-.3.3-.5.4l-18,12.3c-.4.3-.8.7-1.1,1.1l-8.6,12.9c-.3,0-.6-.1-.9-.2l-22.6-1.1c-.8,0-1.6.2-2.4.6L0,440.2v14.5l12.9-7.8c.7-.4,1.5-.7,2.4-.6l16.2.8c.7,0,1.4.3,2,.7l7.9,5c.8.5,1.3,1.2,1.7,2.1l3.7,10c.7,2-.2,4.3-2.2,5.2l-1.4.7c-.5.2-.9.5-1.3.9l-17.9,19c-.5.5-.8,1.1-1,1.7l-6.6,22.9c-.2.6-.2,1.2-.1,1.7.8,5.2,1.6,11.2,2.1,15.6.3,2.6-1.8,4.8-4.4,4.7l-2.4-.2c-.6,0-1.1,0-1.7.2L0,540.9v19.6l12.3-4.4c.5-.2,1.1-.3,1.7-.2l4.2.3-.4,13.3c0,.4,0,.8-.2,1.2l-8.4,24.8c-1.1,3.2.6,6.7,3.9,7.8.7.2,1.3.3,2,.3,2.6,0,5-1.6,5.8-4.2l9-26.5c.1-.4.2-.8.2-1.2l.4-10.4c0-2.3,2.1-4.2,4.4-4l7.6.5c1,0,2,.5,2.8,1.3l9.4,10c.6.6,1,1.3,1.1,2.2l3.8,22.8c0,.5.3,1,.5,1.5l12,19.9c.5.8,1.1,1.5,1.8,2.1l-2.3,11.1c-.2.7-.5,1.4-1,2l-9.9,10.6c-.4.4-.8.7-1.2.9l-18.1,8.9c-1,.5-2.1.6-3.1.2l-15.5-5c-3.2-1-6.7.7-7.8,4-1,3.3.7,6.7,4,7.8l20.2,6.6c1,.3,2.1.3,3.1-.2l24.7-12.1c.5-.2.9-.5,1.2-.9l13.8-14.8c.5-.6.9-1.3,1-2l1.1-5.2c.6-3,4.1-4.3,6.6-2.5l10.9,8s.2.1.3.2l24.8,15.6c.3.2.6.3,1,.5l30.6,9s.2,0,.2,0l5.3,1.9c3.4,1.2,3.7,5.9.6,7.6l-12,6.6s-.2,0-.2.1l-36.4,16.9c-.3.1-.7.3-1,.3l-50,9.5s-.3,0-.5.1l-31.7,9.9c-1.8.6-3.8-.2-4.8-1.8l-3-4.9c-.1-.2-.3-.4-.5-.7L0,680.1v36.1l.8.8h135.7l29-13.5s.2,0,.2-.1l32.2-17.5c1.5-.8,3.4-.6,4.7.5l17.9,15.2,16.9,15.4h45.7l-42.1-38.4s-.3-.2-.4-.3l-2.8-2.4c-2.2-1.9-1.9-5.5.7-6.9h0s0,0,0,0l9.4-5.1c.6-.3,1-.7,1.4-1.2l14.8-20.2c.2-.3.4-.6.5-1l5.7-14.8c.4,0,.7,0,1.1-.1l29.7-6.5c.6-.1,1.3-.1,2,0l20.2,5.7c.4.1.8.3,1.1.5l22.7,14.8s.2.1.3.2l16.5,12.7c1.1.9,1.7,2.3,1.6,3.7l-.5,5.2c0,.8-.4,1.5-.8,2.1l-8.9,11.7s-.3.3-.4.5l-11.4,11s-.1.1-.2.2l-10.8,9.1c-.3.2-.6.4-1,.6l-10.6,4.9s-.3.1-.4.2l-10.9,3.7c-3.2,1.1-5,4.6-3.9,7.8.3.9.8,1.6,1.4,2.2h11.4l6.6-2.2s.3,0,.4-.2l12.5-5.8c.3-.1.5-.3.7-.5l5.7,8.6h15.2l-2.3-2.9s-.1-.2-.2-.3l-8.8-13.4,3.3-2.7s.1-.1.2-.2l12.4-11.9s.3-.3.4-.5l3.2-4.2,11.2,18.5s.2.3.3.4l10.8,13.5s0,.1.2.2l2.4,3.4h33.1s24-3,24-3c.8,0,1.6-.4,2.2-1l14-12c1-.8,2.2-1.2,3.4-1l20.5,3.5c.3,0,.7,0,1,0h.7l23.5-2.8c2.1-.3,4,1.1,4.5,3.1l3.5,13.1h19.1l-10.9-41.2c0-.3-.1-.7-.1-1.1v-8.6c0-1.7,1-3.2,2.5-3.8l11.5-5c.6-.3,1.2-.4,1.8-.3l20.6.8c.3,0,.5,0,.8,0l12.6,2.9c.8.2,1.6.6,2.2,1.3l12.3,13.5s.2.2.3.3l11.9,15.7c.3.4.7.7,1.1,1l13.9,8.6,3.2,2.5-9.9,13.3h23.8c.9-.3,1.9-.3,2.9,0h21.3l-6.2-4.2s-.1,0-.2-.2l-5.3-4.1c-2-1.5-2.2-4.4-.4-6.2l10.3-10.6c.6-.6,1.4-1,2.2-1.2l15.5-3c1.1-.2,2.4-.7,3-1.6.3-.5,1-.7,1.5-.3l10.8,8.7s.4.3.6.4l16.3,8.9c.5.3,1.1.5,1.7.5l14.7.9c.5,0,1,.2,1.5.4l16.7,8c.5.3,1.1.4,1.7.4l21.4.5,1.7.6.2,2.2h32c.2-.7.5-1.5,1.1-2l7.8-7.8c.3-.3.5-.5.9-.7l12.9-7.5c.8-.5,1.8-.7,2.8-.5l24.5,4.1s.3,0,.4,0l18.3,5.2c.3,0,.7.1,1,.2l24,1c1,0,1.9.4,2.6,1v-13.3c-.2,0-.4,0-.6,0l-4.7-.2h0l-19.4-.9c-.3,0-.7,0-1-.2l-17.6-5s-.3,0-.4,0l-28.8-4.8c-.8-.1-1.6,0-2.3,0l-1.5-10c0-.3,0-.7,0-1l1.4-17.9c0-.6,0-1.1-.2-1.7l-4.3-12.5c-.6-1.8,0-3.7,1.6-4.8l5.6-3.8s.3-.3.5-.4l10-9.3c.9,1.1,1.9,2.1,3.1,3l27.8,19.3,30.8,22v-37.8l-13.2-9.4-25-17.3c-.4-.3-.8-.7-1.1-1.1l-19.5-29.3c-.1-.2-.3-.4-.5-.6l-28.9-29.5s-.3-.3-.5-.6l-23.5-34-10.9-17.4c-1.4-2.3-.3-5.4,2.3-6.2l3.4-1.1s.3,0,.4,0l50.8-11.2s.2,0,.2,0l21.2-6c.3,0,.6-.1.9-.1l24.2-1.3h.5l13.9.9c1.9.1,3.5,1.5,3.8,3.3l.9,4.3c0,.5,0,1,0,1.6h0s0,0,0,0l-2.7,14.8c0,.6-.3,1.1-.7,1.6l-8.5,12.7-9.8,13.3c-.2.3-.3.5-.5.8-.6-.6-1.3-1.1-2-1.4l-16-6.7s-.4-.2-.6-.3l-11.1-6.9c-.7-.5-1.3-1.2-1.7-2l-5-12.3c-1.3-3.1-4.9-4.7-8-3.4-3.1,1.3-4.7,4.9-3.4,8l6.3,15.4c.4,1,1.1,1.8,1.9,2.4l-12.5,9.2c-2.7,2-3.3,5.9-1.3,8.6s5.9,3.3,8.6,1.3l10.6-7.8c.7-.5,1.6-.8,2.5-.8h8.5c.6,0,1.1.1,1.6.3l12.5,5.2c.6.3,1.2.7,1.6,1.2l11.2,13.5s.3.3.3.5l9.5,15.8c.2.3.3.6.4.9l5.1,16.6s0,.2,0,.3l3.8,16.4v-42.7l-7.6-12.7c-.3-.4-.4-.9-.5-1.3l-2.3-11.2c-.2-1.2,0-2.3.7-3.3l7.3-9.9,2.4-3.6v-55.7c-.8,1-2.1,1.6-3.5,1.5v.2c0,0-15.7-1-15.7-1h-.5l-26.2,1.4c-.3,0-.6,0-.9.1l-22.1,6.2s-.2,0-.2,0l-51,11.2s-.3,0-.4,0l-10.4,3.3c-1.5.5-3.2,0-4.3-1.1l-44.8-48.1c-.3-.4-.6-.7-.8-1.2l-9.3-21.4-6.7-14.5c-.8-1.8-.3-3.9,1.3-5.1l28.2-21.5c.7-.6,1.6-.9,2.5-.9h3.1c1.3,0,2.4.6,3.2,1.5l10.6,12.8c.2.3.4.5.5.8l7.4,14.8c.1.3.2.5.3.8l4.9,18.5c.1.4.2.8.1,1.3l-.5,12.3c0,.6-.2,1.2-.4,1.7l-6,12c-1.5,3-.3,6.7,2.7,8.2.9.4,1.8.7,2.7.7,2.3,0,4.4-1.3,5.5-3.4l7.2-14.4c.3-.5.4-1.1.4-1.7l.2-4.7,2.5,1.9c.2.2.4.3.7.4l9.8,5.6c1,.6,2,.8,3,.8,2.1,0,4.2-1.1,5.3-3.1,1.7-3,.7-6.7-2.3-8.4l-9.2-5.2s-.3-.2-.5-.3l-8.6-6.5c-.7-.6-1.3-1.3-1.5-2.3l-4.7-17.8c0-.3-.2-.5-.3-.8l-8.6-17.2c-.1-.3-.3-.6-.5-.8l-5.3-6.5c-1.6-1.9-1.2-4.6.8-6.1l26.8-18.9c2.5-1.8,6.1-.3,6.5,2.8l.2,1.6c0,.6.3,1.3.7,1.8l9.4,13.4c.2.3.3.6.4.8l4.6,11.5c.2.4.3.8.3,1.2l1.3,15.4c0,.2,0,.4.1.7l4.3,17.4c.1.6.4,1.1.8,1.6l9.6,11.7s.1.1.2.2l8.9,9.5c.2.3.4.5.6.8l5.7,10.1c1.1,2,3.2,3.1,5.4,3.1s2-.3,3-.8c3-1.6,4-5.4,2.4-8.4l-6.4-11.4c-.2-.3-.3-.6-.6-.8l-9.6-10.2s-.1-.1-.2-.2l-7.6-9.3c-.4-.5-.7-1-.8-1.6l-3.5-14.1h0c0,0,6.9,4.3,6.9,4.3.3.2.6.4,1,.4l20.7,6.8s.4.1.7.2l19.3,3c.3,0,.7,0,1,0l9.6-.9c2-.2,3.9,1.1,4.4,3.1l.8,3.2s0,.2,0,.2l7,21.8c.1.4.3.8.6,1.1l7.9,11.1v-26.3l-3.6-11.2s0-.2,0-.2l-1.2-4.5,4.9-.5v-12.3l-8,.9-.4-1.6-2-38.4c-.1-2.7,2.4-4.9,5-4.3l5.1,1.1c.1,0,.2,0,.3,0v-12.6l-13.4-2.9c-.7-.2-1.4-.5-2-1l-14.6-13.4-18.4-17.7c-.3-.3-.6-.5-.9-.7l-10.3-5.7c-1.6-.9-2.4-2.6-2.1-4.4l7.9-42.1s0-.3.1-.5l8.2-26.6c.2-.6.5-1.1.9-1.6l11.8-12.8c.8-.9,1.9-1.3,3.1-1.3h18c.5,0,1,0,1.4.3l10.1,3.7v-26.1l-5.7-2.1c-.5-.2-1-.3-1.4-.3h-27c-1.1,0-2.1-.4-2.9-1.2h0s0,0,0,0l-37.4-35.7s-.3-.2-.4-.3l-18.9-14-12.7-9.2c-1-.7-1.6-1.9-1.7-3.1l-2.4-32.2c0-.6-.2-1.2-.5-1.7l-7.3-13.4c-.7-1.3-.7-3,.2-4.3l11.2-16.8c.2-.3.4-.7.5-1l9.8-30.8c0-.2,0-.5.2-.7l7.3,5c.4.3.8.5,1.3.6l12.1,3.2c.5.1,1,.4,1.3.6l15.1,10.7s.3.3.5.4l7.3,6.9c.6.5,1,1.2,1.2,1.9l3,10.8c.1.4.2.9.1,1.4l-.7,10.4c0,1-.4,1.8-1.1,2.6l-8.6,9.4-.4.4-10.7,9c-.5.4-1.1.7-1.8.9l-11.7,2.6c-3.3.7-5.4,4-4.7,7.3.7,2.9,3.2,4.8,6,4.8s.9,0,1.3-.1l14.6-3.3c.7-.1,1.3-.4,1.8-.9l7.9-6.6c2.3-2,5.9-.9,6.7,2.1l1.8,6.5c.2.8.7,1.5,1.3,2l12.3,10.6c.4.3.9.7,1.4.8l14.4,4.6s.3.1.5.2l11.2,5.4c.3.2.7.4,1,.6l4.6,4v-15.7c-.1,0-.2,0-.3-.1l-11.8-5.7s-.3-.2-.5-.2l-12.8-4.1c-.5-.2-1-.4-1.4-.8l-7.6-6.6c-.6-.5-1.1-1.3-1.3-2l-2.2-7.9c-.2-.6-.2-1.2,0-1.8l2.2-12.9s0-.4,0-.6l.2-3.1,1.1,1s.4.3.7.5l15.1,10.2c.6.4,1.3.7,2,.7l14.5,1.1c.4,0,.9,0,1.3,0l.9-.2v-12.7l-1.9.5c-.4,0-.9.1-1.3,0l-9.3-.7c-.7,0-1.4-.3-2-.7l-11.9-8s-.3-.2-.4-.3l-7.7-7c-.6-.5-1-1.2-1.2-2l-3.6-12.9c-.2-.7-.6-1.4-1.2-1.9l-.2-.2c-2.8-2.6-.8-7.3,3-7.2h5.6c0,.1.7.1.7.1l27.6-2.1,4-.5v-12.5l-5.3.7-26.8,2ZM89.9,136.3l-9.8,4.2s-.4.2-.7.2l-16.9,4.2c-.7.2-1.3.5-1.8,1l-25.3,23c-.7.7-1.6,1-2.5,1.1l-3.3.2c-1.4,0-2.7-.5-3.6-1.6h0s-5.3-6.8-5.3-6.8c-.6-.8-.9-1.7-.9-2.7l.6-17.6c0-.5.1-1.1.4-1.6l5.7-12.7c.1-.3.2-.6.3-.9l2.6-12.5c.2-.8.6-1.6,1.2-2.1l14.2-13.7c.6-.5,1.3-.9,2-1.1l5.9-1.3c.7-.1,1.3-.1,1.9,0l26.3,6.8c1.1.3,2,1,2.6,1.9l3.8,6.3c.2.3.3.7.4,1l4.1,14.7c0,.2,0,.4.1.7l.5,4.8c.2,1.8-.8,3.6-2.5,4.3ZM601.8,37.8l12.5-1.6h.4l25.5-.7,17.5-.7c.6,0,1.3-.1,1.8-.3l1.7-.6c.6,1.1,1.3,2.1,2.3,2.9l27,21.8c1.4,1.1,1.9,3,1.3,4.7l-2.3,6s0,.3-.1.4l-2.6,9.8c0,.2-.1.4-.2.7l-5.5,12.1c-.3.7-.8,1.3-1.4,1.7l-5.7,4c-1,.7-2.3.9-3.4.7l-9.4-2.3c-3.3-.8-6.6,1.2-7.5,4.5-.8,3.3,1.2,6.6,4.5,7.5l14,3.5c.5.1,1,.2,1.5.2,1.3,0,2.5-.4,3.6-1.1l11.9-8.4c.9-.7,1.6-1.5,2-2.5l.3,1.2c.4,1.4,1.3,2.6,2.5,3.5l12.6,8.4c1,.7,2.2,1,3.4,1s.7,0,1,0l13.3-2.1c3.3-.5,5.7-3.7,5.1-7s-3.7-5.7-7-5.1l-9.3,1.5c-1,.2-2.1,0-3-.6l-6-4c-.8-.6-1.4-1.4-1.7-2.3l-3.1-11.1c-.2-.7-.2-1.5,0-2.2l1.9-7.2s0-.3.1-.4l2.3-6c.6-1.6,2.2-2.7,4-2.7,21.6,0,27.8,0,29.8,0h.3c1.8,0,9.1.7,17.6,1.5.1.3.2.6.3.9l9.5,17.5c.3.5.4,1.1.5,1.7l1.8,24.4c.1,1.6-.7,3.1-2,3.9l-19.3,11.5s-.3.2-.4.3l-29.8,23s-.3.2-.3.3h0s0,0,0,0l-9,8.8c-.9.8-2,1.3-3.2,1.2l-19.8-1.3c-.6,0-1.1,0-1.7.2l-9.3,3.2c-1.5.5-3.3.1-4.4-1l-8.6-9c-.3-.3-.5-.6-.7-.9l-11.9-21.8-10.5-20.2-9.9-19.8c-.2-.3-.4-.6-.6-.9l-11.8-13.2c-.6-.6-1.3-1.1-2.1-1.3l-9.1-2.3c-1.7-.4-3-1.9-3.1-3.7l-1.1-13.6-.4-11.5c0-2.2,1.5-4,3.7-4.3ZM723.8,236.9l-4.1,8.2c-.2.3-.4.6-.7,1l-10.6,11.6c-.7.7-1.5,1.2-2.4,1.3l-17.9,2.8c-.3,0-.5,0-.8,0l-20.7-.6c-.4,0-.7,0-1.1-.2l-20.3-6.3s-.4-.1-.6-.2l-20.4-9.9s-.3-.2-.4-.3l-11.4-7.3s-.3-.2-.5-.3l-3.2-1.7,12.8-5.4c.3-.1.7-.4,1-.6l23.4-18.7s.1,0,.2-.2l24.3-21.8c.4-.4.9-.6,1.4-.8l12.9-4.5c.5-.2,1.1-.3,1.7-.2l18.5,1.3c1.3,0,2.6.8,3.3,2l6.3,10.3,8,12.2c.3.5.5,1,.6,1.6l2.2,12.6c0,.4,0,.7,0,1.1l-1.1,11.4c0,.5-.2,1-.4,1.5h0ZM597.1,193.6l.7-23v-.3l-.7-20.7v-.7l2-15.4,2.1-19.7v-27l-.3-3.7,4.3,1.1c.8.2,1.6.7,2.1,1.3l8.2,9.2c.3.3.4.6.6.9l9.2,18.5,10.6,20.4,12.7,23.3c.2.3.4.6.7.9l8.2,8.5c-.3.2-.6.4-.9.6l-26.2,23.5s-.1,0-.2.2l-20.2,16.1c-.3.2-.7.4-1,.6l-5.4,2.3c-2.7,1.1-5.6-.7-5.8-3.6h0s-.6-12.9-.6-12.9v-.3ZM601.6,295.7l31.4,40.1s.3.4.4.6l21.3,40.1c.2.3.3.6.6.8l16.8,18.8c.3.3.5.7.7,1l9.1,19.6,6.7,15.4c.7,1.6.3,3.5-1,4.7l-19.9,18.5s-.3.3-.5.5l-16.9,22.4c-.8,1.1-2.1,1.7-3.4,1.7l-18.8-.4h-.2l-28.8,1c-.3,0-.7,0-1,.2l-14.6,4.2s-.3-.2-.4-.3l-15.9-8c-.3-.1-.6-.3-.8-.5h-.2,0s-14.3-11.8-14.3-11.8c-1.6-1.3-2-3.6-.9-5.4l4.9-8c.1-.2.3-.4.3-.7l6.8-18s0-.2.1-.4l6.4-22.4c0-.3.2-.6.3-.9l7.6-14s.3-.4.4-.6l1.5-2c2-2.4,5.8-2,7.1.9l5.3,11.6s.1.2.2.4l10.6,18.4s.1.2.2.3l4.8,6.8c1,1.4,1,3.4,0,4.8l-10.5,14.8c-2,2.8-1.3,6.6,1.4,8.6,1.1.8,2.4,1.1,3.6,1.1,1.9,0,3.8-.9,5-2.6l13-18.3c.4-.6,1-1.1,1.7-1.4l9.3-4.3c.5-.2,1-.4,1.6-.4l18.5-.9c3.4-.2,6-3,5.9-6.4-.2-3.4-3-6-6.4-5.9l-20.9,1c-.5,0-1,.2-1.6.4l-6,2.7c-1.8.8-4,.3-5.1-1.4l-3.9-5.5s-.1-.2-.2-.3l-10-17.3s-.1-.2-.2-.3l-9.2-20c-.7-1.5-.4-3.2.7-4.5l6.1-7.1c.4-.4.7-1,.9-1.6l8.8-30.5c1-3.3-1-6.7-4.2-7.6-3.3-1-6.7,1-7.6,4.2l-8,28c-.2.6-.5,1.1-.9,1.6l-4.3,5c-1.3,1.5-3.4,1.9-5.2.9l-9.6-5.3s-.3-.2-.5-.3l-20.3-7.7c-.3-.1-.7-.3-1-.5l-16.2-11.9c-1.7-1.3-2.2-3.6-1.2-5.4l9.3-16.5c.2-.3.3-.5.6-.7l26.8-29.6.2-.2,10.8-13.4c1.7-2.1,4.8-2.1,6.5,0l16.3,19.9ZM642.1,496.2v24.2c0,.7-.2,1.3-.5,1.9h0s0,0,0,0l-9.6,18.7c-.8,1.6-2.6,2.5-4.4,2.2-4.3-.7-8-1.3-8.8-1.5-2-.4-10.2-1.7-13.9-2.2-.5,0-.9-.2-1.3-.4-5-2.7-10.3-5.6-13.5-7.4-1.3-.7-2-2.1-2-3.6v-28.8c0-1.9,1.2-3.5,3-4l8.8-2.6c.3,0,.7-.1,1-.2l26.9-.9h.2l9.9.2c2.3,0,4.1,1.9,4.1,4.2ZM548.7,541.4l-19.7-16s-.3-.3-.6-.4l-27.8-15.9s-.1,0-.2-.1l-8.7-5.6c-2-1.3-2.5-3.9-1.2-5.9l11-16.2s.1-.2.2-.3l8.3-10.5c1-1.3,2.8-1.9,4.4-1.4l20.4,5.7c.6.2,1.1.4,1.5.8l19.8,16.2c.3.2.5.4.8.5l10.3,5.2c1.4.7,2.3,2.2,2.3,3.7v28.1c0,1.4-.7,2.8-2,3.5l-14.2,8.9c-1.5,1-3.5.8-4.9-.3h0ZM387.5,472.8l-12.2-4.9c-.8-.3-1.5-.9-2-1.6l-7.4-11.8c-.4-.6-.6-1.2-.6-1.9l-.7-8.5c-.1-1.6.7-3.2,2.1-4l10.9-6c.4-.2.8-.4,1.2-.4l16.4-3.3c1.5-.3,2.8-1.4,3.2-3l4.7-16.7c0-.3.2-.7.2-1.1v-9.7c0-1.9,1.3-3.6,3.1-4l9.1-2.4c.4,0,.8-.2,1.2-.1l27.8.9s.3,0,.5,0l17.7,2.8c1.1.2,2.1.8,2.8,1.8l11.3,16.5s.2.3.3.4l13.5,26.1s.2.3.2.6l4.7,13.7c.5,1.3.2,2.8-.7,4l-8,10.1s-.1.2-.2.3l-11.6,17.1c-1.3,1.9-3.9,2.4-5.8,1.1l-6.9-4.7s-.3-.2-.4-.3l-16.2-14.3c-.6-.5-1.4-.9-2.2-1l-20.4-3c-.4,0-.7,0-1.1,0l-22.2,2.5c-.6,0-1.2.3-1.7.6l-7,4.2c-1.1.7-2.5.8-3.7.3h0c0,0,0,0,0,0ZM344.7,363.2l-4.5-10.3c-.3-.6-.4-1.2-.4-1.8l.4-10.9c0-.4,0-.9.2-1.3l2.4-6.7s0-.3.1-.5l.9-4.1,12.3-1.1h.8l24.4,2.3c3.4.3,6.4-2.2,6.7-5.6.3-3.4-2.2-6.4-5.6-6.7l-25.5-2.4h-.8l-6.1.6c-2.4.2-4.4-1.5-4.6-3.9l-1.5-20.2v-.2l-.4-22.3c0-.7.1-1.3.4-1.9l4.2-8.7,2.6.5c.6.1,1.3.2,1.9.2,2.1,0,4.3-.7,5.9-2.2l20.3-17s.2-.2.4-.3l13-13.7c1.6-1.6,4.2-1.7,5.9-.2l1.8,1.7s.4.4.5.6l10.1,13.8,5.9,7.3c.9,1.2,1.2,2.7.7,4.1l-3.7,9.5c-.1.4-.2.8-.3,1.2l-1.4,17.5c0,.4-.1.8-.3,1.2l-6.2,16.3c-.3.6-.4,1.3-.4,2,0,0-.5,16.4-.5,17.9s0,2.6,5.7,17.1c1,2.4,3.3,3.9,5.7,3.9s1.5-.1,2.3-.4c3.2-1.3,4.7-4.8,3.5-8-1.8-4.6-3.9-10.1-4.7-12.5-.1-.4-.2-.8-.2-1.3,0-3.1.3-11.1.4-14.6,0-.5,0-.9.3-1.3,1-2.8,5.2-13.8,6.2-16.4.1-.4.2-.7.3-1.1l1.3-17.4c0-.4.1-.8.3-1.2l1.9-4.8,17.2,5.6c.7.2,1.5.3,2.2.3l17.3-.8c.6,0,1.2,0,1.8.3l17.1,7c.7.3,1.3.8,1.8,1.5l8.5,12.1c.6.8.8,1.8.7,2.8l-1.6,15.7c0,.5,0,1,.1,1.5l4.5,16.5c.2.6.4,1.1.8,1.6l7.3,8.9c1.6,1.9,1.2,4.7-.9,6.1l-13.5,9.1c-.4.2-.7.5-.9.9l-22.4,28c-1,1.2-2.4,1.7-3.9,1.5l-16.9-2.6s-.3,0-.5,0l-30.9-1c-.9,0-1.8,0-2.7.3l-14.2,3.8c-.7.2-1.6.2-2.3,0l-49.9-15.2h0c-.5-.2-1.1-.3-1.6-.3ZM331.7,291v.2l1.2,16.4c.2,3.1-3,5.4-5.9,4.1l-6.5-2.9c-.3-.1-.5-.2-.8-.3l-16.5-3.6c-1.3-.3-2.6,0-3.6.9l-11.8,10c-.4.3-.8.6-1.3.7l-10.9,4c-1.4.5-2.9.3-4.1-.7l-5.7-4.6c-.6-.5-1-1-1.3-1.7l-6.3-16.5c-.2-.6-.6-1.2-1.1-1.6l-10.8-9.7c-1.2-1-1.6-2.7-1.3-4.2l4.3-16.5s0-.3.1-.4l.2-.2h0s12.9-33.6,12.9-33.6c.8-2,3-3.1,5-2.5l13,3.7c.2,0,.4.1.6.3l40.2,19.4c.3.1.7.3,1,.4l8.1,1.6c2.7.6,4.1,3.5,2.9,5.9l-1.8,3.7c-.3.6-.4,1.3-.4,1.9l.5,25.5ZM212.3,232.3l-4.2-13s-.1-.4-.1-.6l-2.8-17.7c-.1-.7-.4-1.4-.9-2l-10.4-13.1c-.7-.8-1-1.8-.9-2.9l.9-13.9c0-1-.2-1.9-.7-2.6l-7.6-10.9c-1.3-1.8-.9-4.3.9-5.7l10.1-7.7c.6-.5,1.4-.8,2.3-.9l21.2-1.5h.7l17.6,1.5c.6,0,1.2.3,1.8.6l2.9,1.7c1.4.8,2.2,2.3,2,4l-2,22.8v.3l-3.2,22.1c0,.3,0,.7,0,1l2.3,21.2c0,.6,0,1.3-.3,2l-7.3,19.1c-.7,1.8-2.5,2.9-4.4,2.6l-4.1-.6s-.4,0-.6-.1l-10.1-2.9c-1.3-.4-2.4-1.4-2.8-2.7h-.1s0,0,0,0ZM181.2,190l11.3,14.2c.4.6.7,1.2.9,1.9l2.5,15.4s0,.4.1.6l4.2,13c.5,1.5,0,3.2-1.1,4.3l-9.2,8.7-9.6,8.6c-1.1,1-2.6,1.3-4,.9l-11.3-3.4c-.5-.2-1-.2-1.6-.2l-21.2,1.9c-1,0-2,.6-2.7,1.4l-5.4,5.9-1.6-13.7c0-.3-.1-.6-.2-.9l-5.9-16.5c-.2-.4-.3-.9-.3-1.4v-31.3l.6-17.1c0-.6.2-1.2.4-1.7l4.8-9.6c.6-1.1,1.6-1.9,2.9-2.2l9.2-1.9c.4,0,.9-.3,1.2-.5l14.8-8.6c.4-.3.9-.4,1.4-.5l6.6-1.1c1.6-.3,3.2.4,4.1,1.7l8.4,12.1c.5.8.8,1.7.7,2.6l-.9,14.4c0,1,.3,2,.9,2.9ZM237.7,310.2h0c0,0,0,0,0,0,0,0,0-.1,0-.2l1.6-6c.8-3,4.6-4.2,6.9-2.1l.7.6c.5.4.9,1,1.1,1.6l6.5,16.8c.3.7.7,1.3,1.3,1.7l12.9,10.4c1.1.9,2.5,1.4,3.9,1.4s1.4-.1,2.1-.4l18.5-6.8c.5-.2.9-.4,1.3-.7l8.8-7.5c1-.8,2.3-1.2,3.6-.9l9.3,2c.3,0,.6.1.8.3l14.6,6.5-.3,1.6-2.8,8c-.1.4-.2.8-.2,1.3l-.5,15.6c0,.6,0,1.3.3,1.8l3.3,7.6c1,2.1,0,4.6-2.2,5.5l-28.3,11.7s-.3.2-.5.3l-17.2,10c-.7.4-1.4.6-2.1.6h-24.8c-.3,0-.5,0-.8,0l-31.1-6c-2.3-.4-3.7-2.6-3.3-4.9l7.6-40.8s0-.4.1-.5l9.2-28.6ZM328.5,234.5c-.4,0-.7-.2-1-.4l-39.5-19.1s-.4-.2-.7-.3l-18.5-5.3c-1.6-.5-2.8-1.9-3-3.6l-1.3-11.9v-1l2.9-19.7v-.3l1.3-15c.3-3,3.5-4.7,6.1-3.3l3.9,2.1c.5.3.9.6,1.2,1h0c0,.1,0,.1,0,.1l11.7,13.9c.8.9,1.9,1.4,3,1.5l14.8.5h.2c1.5,0,3-.6,4.2-1.6l9.6-8.7c.4-.3.8-.6,1.3-.8l17.9-7s.3-.1.5-.2l5.7-3.1c1.4-.7,3-.7,4.3.2l9.6,6.5c.9.6,1.5,1.4,1.7,2.4l4.3,17,4.9,22.6c.2.8.6,1.6,1.3,2.2l3.6,3.3c1.7,1.6,1.8,4.3.2,6l-12,12.6s-.2.2-.4.3l-14.5,12.2c-1,.8-2.3,1.1-3.5.9l-19.8-4.1ZM544.9,445.6h0s-5,8.2-5,8.2c-1,1.6-2.9,2.3-4.7,1.9l-20.3-5.7c-1.3-.3-2.4-1.3-2.8-2.6l-4.3-12.3s-.1-.4-.2-.6l-14.6-28.4s-.2-.3-.3-.4l-9.6-14c-1-1.5-1-3.5.2-5l19.3-24.1c.3-.4.6-.6.9-.9l15.8-10.6c1.5-1,3.4-1,4.8,0l18.4,13.5c.3.2.7.4,1,.5l21.1,8s.3.2.5.3l5.3,2.9c2.3,1.3,2.9,4.2,1.3,6.2l-3.9,4.9s-.3.4-.4.6l-8.8,16.1c-.1.3-.3.6-.3.9l-6.6,23.2s0,.2-.1.4l-6.2,16.4c0,.3-.2.5-.3.7h.2ZM525.4,103.4l20-13.8s.4-.3.7-.4h0s11.9-5.3,11.9-5.3c.3-.1.7-.3,1-.3l15.2-2.4c.3,0,.5,0,.8,0l9.8.3c2.1,0,3.9,1.7,4,3.8l.2,2.4v25.7l-2,18.9-2.1,16.2v.7l.7,21.3v.3l-.7,23v.3l.2,4.7-14.2-20.2-32.8-44.6s-.2-.3-.3-.5l-13.6-24.6c-1-1.9-.5-4.2,1.3-5.4ZM433.7,164.7c.9-2.3,1.6-4,1.9-4.7.3-.6,1.3-2.5,7.2-26.8,0-.2,0-.4,0-.7.5-6.9,1.5-18.8,1.5-20.2v-24.3c0-1.4.6-2.7,1.8-3.4l5.5-3.8c.4-.3.8-.7,1.1-1.1h0s2.5-3.7,2.5-3.7c1.6-2.4,5.1-2.5,6.8-.2l32.8,44s.2.3.3.5l16.5,29.9s.2.3.3.5l33.8,46,27.1,38.5c.4.6.7,1.2.7,1.9l1.5,11.9c.1,1.1-.2,2.3-.9,3.1l-20.5,25.5s0,.1-.2.2l-27.8,30.7c-.2.2-.4.5-.6.7l-6.6,11.7c-1.4,2.6-5,2.9-6.9.6l-2.7-3.3c-.4-.5-.6-1-.8-1.6l-3.2-11.8c-.1-.5-.2-1-.1-1.5l1.8-17.9c0-1-.2-2-.7-2.8l-13.2-18.8c-.5-.6-1.1-1.2-1.8-1.5l-22.5-9.3c-.8-.4-1.7-.5-2.7-.5l-17.7.9c-.5,0-1,0-1.5-.2l-12.9-4.2c-.8-.3-1.5-.7-2-1.3l-11.3-14.1-10.6-14.5s-.3-.4-.5-.6l-4.3-3.9c-1.7-1.6-1.8-4.2-.3-5.9l8.6-9.5s.3-.3.3-.4l9.5-13.8c.6-.8,1.3-1.4,2.3-1.6l10.9-3.1c1-.3,2-.2,3,.2l18.9,8.9c.5.3,1,.6,1.4,1l18.7,21.8s.3.4.5.5l17.7,15c.3.3.5.5.7.8l12.8,18.8c.3.4.6.8,1,1.1l9.9,6.9c1.1.7,2.3,1.1,3.5,1.1,2,0,3.9-.9,5-2.6,2-2.8,1.3-6.6-1.5-8.6l-8-5.6c-.4-.3-.8-.6-1-1.1l-12.5-18.3c-.2-.3-.5-.6-.7-.8l-18.2-15.4s-.4-.3-.5-.5l-19.8-23.1c-.4-.4-.9-.8-1.4-1l-25.5-12c-.9-.4-2-.5-3-.2l-5,1.4c.5-1.2,1-2.4,1.5-3.6ZM359.9,139.9l1.1-10.3h0c0,0,0,0,0,0,0-.5.2-.9.4-1.3l8.8-19c.4-.9.5-1.8.5-2.7l11.9-10.7c.3-.2.5-.4.8-.6l12.6-6.7c.9-.5,1.9-.6,2.9-.3l16.6,4c.3,0,.6.1,1,.1h11.4c2.3,0,4.2,1.9,4.2,4.2v15.9c0,1.1-.7,10.1-1.3,18.3,0,.2,0,.4,0,.6-2.5,10-5.3,21-6,23.1,0,.2,0,.3-.2.4-.4.9-1.3,2.9-2.3,5.5-1.7,4.2-4.2,10.4-5.6,13-.7.4-1.3,1-1.7,1.6l-11.1,16.2s-.2.3-.4.4l-8,8.7c-1.6,1.7-4.2,1.8-5.9.3l-3.7-3.4c-.6-.6-1-1.3-1.3-2.2l-4.1-19-5.4-21.8c-.3-1-.9-1.9-1.7-2.4l-11.8-8c-1.3-.9-2-2.3-1.8-3.9ZM327.9,69.4c.3.3.4.5.6.8l8.2,13.6c.3.5.7,1,1.3,1.3l17.4,11.7c.9.6,1.6,1.6,1.8,2.7l1,4.9c.2.9,0,1.7-.3,2.6l-8.3,17.9c-.2.4-.3.9-.4,1.3l-1.1,10.8c-.1,1.4-1,2.6-2.2,3.3l-7.8,4.2s-.3.1-.5.2l-19.4,7.6c-.5.2-.9.5-1.3.8l-8.2,7.5c-.8.7-1.9,1.1-3,1.1l-5-.2c-1.2,0-2.3-.6-3-1.5l-9.7-11.6c-.4-.4-.8-.7-1.2-1l-8.8-4.7c-2.2-1.2-2.9-4-1.4-6.1l15.1-21.4,21.2-29.7s.2-.2.2-.4l11.1-19.5v-.2c-.1,0,3.8,3.9,3.8,3.9ZM114.5,149.1c-.3-.3-.7-.6-1-1l-7.5-10.4c-.4-.6-.7-1.3-.7-2h0c0-.1,0-.1,0-.1l-1.2-10.7c0-.2,0-.4-.1-.6l-4.8-17.2c0-.4-.3-.7-.4-1l-3.2-5.3c-.9-1.5-.7-3.4.3-4.7l20.8-26s.3-.4.6-.6c9.9-8.3,20.6-17.4,23.7-19.9.3-.3.6-.4,1-.6,5.9-2.5,31.2-12.6,49-19.6l-2.7,7.1c0,.3-.2.6-.2.8l-2.7,17.8c0,.3-.2.7-.3,1l-4,9.1c-.6,1.3-1.7,2.2-3.1,2.4l-7,1.2c-.3,0-.5.1-.8.2l-17.5,6.7c-.6.3-1.2.6-1.7,1.1l-11.6,13.1c-.2.3-.4.5-.6.8l-6,11.3c-.6,1.2-.6,2.6,0,3.8,1.4,2.9,3.8,4.2,6.1,4.2s4.3-1.2,5.4-3.3l4.8-9c.2-.3.3-.6.6-.8l8.6-9.8c.4-.5,1-.9,1.7-1.1l13.6-5.2c.3,0,.5-.2.8-.2l5.4-1c1.5-.3,3,.3,3.9,1.4l8.4,10c.6.7,1.4,1.2,2.3,1.4l20.7,4.8c.4,0,.9.2,1.4.2h.4l19.1-1.4,13.3-.4c3.4,0,6.1-2.9,6-6.3,0-3.4-2.9-6-6.3-6l-13.6.4-17.8,1.3c-.4,0-.8,0-1.3,0l-15.2-3.5c-.9-.2-1.6-.7-2.3-1.4l-5.4-6.4c-1-1.2-1.3-2.9-.6-4.4l4.3-9.7c.1-.4.3-.7.3-1l2.7-18.2c0-.3.1-.6.2-.8l5-13.3c.7-1.8,2.5-3,4.5-2.7l22.2,3h.7l30-1c.2,0,.4,0,.7,0l38.7-7.5c.6-.1,1.1-.3,1.6-.7l10.7-7.5-1.9,10.2-6.2,26.8c0,.4-.2.8-.4,1.1l-13.6,23.9s-.1.3-.2.4l-20.5,28.8-20.2,28.8c-1.3,1.8-3.7,2.3-5.6,1.2l-1.7-1c-.6-.3-1.2-.5-1.8-.6l-21.4-1.8h-.7l-25.8,1.9c-.8,0-1.6.3-2.3.9l-15.3,11.7c-.6.4-1.2.7-1.9.8l-17.5,2.9c-.5,0-1,.3-1.4.5l-15,8.7c-.4.2-.8.4-1.2.5l-11.1,2.3c-1.2.3-2.4,0-3.3-.7l-10.7-7.8ZM66.5,351.5l-30.1-24.8c-.6-.5-1-1-1.3-1.7l-8.3-21.6h0q0,0,0,0c-.4-1.1-1-2-1.7-3l14.7-10.1c.7-.5,1.2-1.1,1.5-1.9l7.6-19.5c.1-.3.3-.7.5-.9l10.2-14.2c.5-.7,1.3-1.3,2.1-1.5l14.5-4.7c.2,0,.4-.2.7-.3l15.1-7.9c.2-.1.5-.2.7-.3l17.7-5.5c.8-.2,1.5-.6,2.1-1.1l1-.9v.8c0,.7.1,1.4.4,2.1l6,16.8c0,.3.2.6.2.9l2,17.5c0,.6.3,1.1.6,1.6l4.2,7.1c.5.8.6,1.7.6,2.6l-1.8,17.4v.6l-12,.7s-.4,0-.6,0l-20.3,4.1c-.3,0-.6,0-.8,0h-20.5c-3.4,0-6.2,2.7-6.2,6.2s2.7,6.2,6.2,6.2h21.7c.3,0,.6,0,.8,0l20.7-4.2s.4,0,.6,0l8.2-.5c2.2-.1,4.1,1.4,4.4,3.6l1.4,9.5,4.7,24.9c0,.3.1.5.2.8l8.7,21.3c1,2.4,3.3,3.8,5.7,3.8s1.6-.1,2.3-.4c3.2-1.3,4.7-4.9,3.4-8l-8.2-20.2c0-.3-.2-.5-.2-.8l-4.4-23.5-.9-5.9c-.4-2.7,1.8-5,4.4-4.8l6,.4c.3,0,.6,0,1,.2l17.2,5.3c.3,0,.6.2.9.4l15,8.8c1,.6,2,.9,3.1.9,2.1,0,4.2-1.1,5.3-3,1.7-2.9.7-6.7-2.2-8.4l-16.2-9.5c-.3-.2-.6-.3-.9-.4l-19.9-6.1c-.3,0-.6-.2-1-.2l-15.2-1h0c0-.1,2-20.1,2-20.1.1-1.3-.1-2.5-.7-3.6l5.8-6.4c.7-.8,1.7-1.3,2.7-1.3l14.1-1.3c.5,0,1.1,0,1.6.2l15.6,4.8c1.4.4,2.9,0,4-.9l14.9-13.4,9.7-9.2c1.1-1,2.6-1.4,4-1l10.6,3s.4,0,.6.1l5.4.7-2.4,6.2s0,.3-.1.4l-12.1,45.6s0,.1,0,.2l-9.5,29.5s0,.4-.1.5l-8.6,46.5c0,.4-.2.7-.4,1.1l-5,10.2c-.3.6-.8,1.2-1.3,1.6l-24.8,17.6c-.3,0-.7,0-1.1,0-1,0-2,.2-3,.5l-11.4-4.7s-.4-.2-.5-.3l-26.6-15.8-29.3-19.2s-.1,0-.2-.1l-25.6-18.9ZM48.5,437.8l4.5-6.8c.3-.4.6-.8,1.1-1.1l16.9-11.5s.3-.3.5-.4l11.9-11.3c.3-.2.5-.5.7-.8l2.7-4.2c1.3-2,3.9-2.6,5.8-1.3l15.9,10.4s.3.2.4.3l28.3,16.8s.3.2.5.3l8.8,3.7c1.5.6,2.5,2,2.6,3.6l2,40.6c0,.2,0,.5,0,.7l3,13.7c.6,2.8-1.7,5.3-4.5,5l-13.3-1.2c-.4,0-.8,0-1.2,0l-12.6,2.4c-2.7.5-5.2-1.7-5-4.4l.5-6,1.7-17c.1-1.4-.4-2.7-1.5-3.7-4.8-4-10.4-1.1-10.9,3.7l-1.6,15.8-.6,7.6c-.2,2.7-2.8,4.4-5.4,3.7l-15.1-4.6c-.5-.2-1-.4-1.4-.8l-14.9-12.2c-2.4-2-1.9-5.7.9-7l5-2.4,13.6-6.8c3-1.5,4.2-5.2,2.8-8.2h0c-1.5-3-5.2-4.3-8.3-2.7l-13.5,6.8-5.8,2.7c-2.2,1-4.9,0-5.7-2.3l-4.4-12.2c-.3-.9-.9-1.6-1.7-2.1l-1.6-1c-2-1.3-2.6-4-1.3-5.9ZM56.1,543.8l-2.6-2.8c-.7-.8-1.7-1.2-2.8-1.3l-16-1c-2-.1-3.7-1.7-3.9-3.7-.3-3.3-.9-8.5-2.2-17,0-.6,0-1.2,0-1.7h0c.9-3.1,4-14.2,5-17.5.2-.7.5-1.2,1-1.7l14.8-15.7,2.5-1.2v.3c.5,1,1.2,2,2,2.7l23.4,19.1c.4.4.9.6,1.4.8l19.6,5.9c2.6.8,3.8,3.8,2.4,6.1l-6.8,11.4c-.3.5-.7.9-1.1,1.2l-14.4,10.9c-.4.3-.7.5-1.2.6l-16.9,5.8c-1.6.5-3.3,0-4.4-1.1ZM168.9,650.7l-6.9-2.5s-.2,0-.2,0l-29.3-8.6c-.3,0-.7-.3-1-.5l-23-14.4s-.2-.1-.3-.2l-18.9-13.9,12.9,1.1h.5c.4,0,.7,0,1,0l20.9-3.6c.9-.1,1.7-.6,2.3-1.2l10.9-10.9c2.4-2.4,2.4-6.3,0-8.7h0c-2.4-2.4-6.3-2.4-8.7,0l-8.2,8.2c-.6.6-1.4,1-2.3,1.2l-15.8,2.7c-.4,0-.7,0-1,0l-17-1.4c-1.4-.1-2.6-.9-3.2-2l-4.2-7c-.3-.4-.4-1-.5-1.5l-4.1-24.8c-.1-.8-.5-1.6-1.1-2.2l-4.5-4.7,16.1-5.5c.4-.1.8-.3,1.2-.6l17.9-13.5c.4-.3.8-.7,1.1-1.2l11.7-19.8c.5-.8.8-1.7.8-2.7l.2-2,19.7-3.8c.4,0,.8,0,1.2,0l21.2,2,.7,3.1,5.5,53.5,5.7,63.5c0,.2,0,.4.1.7l4.1,16.4c.8,3.3-2.3,6.1-5.5,5ZM185.6,489.9l-3.8-17.3c0-.2,0-.4,0-.7l-2-39.9c0-1.4.6-2.8,1.7-3.6h0s27-19.2,27-19.2c.6-.4,1-1,1.3-1.6l1.5-3.1c.8-1.7,2.7-2.6,4.5-2.3l37.7,7.2c.3,0,.5,0,.8,0h19c2,0,3.7,1.4,4.1,3.4l1.1,5.8c0,.3,0,.5,0,.8v13c0,.7.2,1.4.5,2l7.1,12.9c.3.4.4.9.5,1.4l8.3,55.5s0,.3.1.4l-10.6,12.5s-.3.4-.4.7l-3.1,5.5c-.8,1.4-2.4,2.2-4,2.1l-9.2-.7c-1,0-2-.5-2.7-1.3l-11.3-11.7s-.1-.1-.2-.2l-18.9-17.5c-.5-.4-1.1-.8-1.7-1l-18.2-5c-.7-.2-1.3-.2-2,0l-17.5,3.5s-.2,0-.3,0l-4.4,1.2c-2.3.6-4.7-.8-5.2-3.1ZM306.8,515l14.4,8c.4.2.7.5,1,.7l21.8,22.6-2.4,2.8-10,2.8c-.9.3-1.9.2-2.8-.2l-20.6-9c-.4-.2-.7-.4-1-.7l-15.6-13.2,2.3-4.1c.1-.2.3-.4.4-.7l7.1-8.4c1.3-1.5,3.5-1.9,5.2-1h0c0,0,0,0,0,0ZM253.7,635.8c-.1.3-.3.7-.5,1l-12.2,16.6c-.4.5-.8.9-1.4,1.2l-14,7.6c-1.5.8-3.4.6-4.7-.5l-12.9-11c-.6-.6-1.1-1.3-1.3-2.2h0s-6.1-24.3-6.1-24.3c0,0,0-.4-.1-.7l-5.5-61.3-5.6-54.5c0-.5-.1-1-.3-1.5l8.8-2.4s.2,0,.3,0l14.2-2.8c.7-.1,1.3,0,2,0l12.4,3.5c.7.2,1.2.5,1.7,1l16.5,15.2.2.2,4.7,4.9c1.5,1.6,1.6,4,0,5.7l-7.2,8c-.3.4-.6.8-.8,1.3l-9.7,25.4s-.1.4-.2.6l-5.5,24.8c-.2,1,0,2.1.5,3l11.3,19c.5.9,1.4,1.6,2.4,1.9l15.6,4.6,2.6,2.4-5.2,13.5ZM319.7,564.4l-.8,7.5c0,.3,0,.6-.2.9l-5,14.6c0,.3-.2.5-.3.7l-7.9,13.5h-.5c-1.5-.6-3-.6-4.5-.3l-33,7.2h0c-1.3.3-2.5.9-3.5,1.6l-.4-.4c-.7-.7-1.5-1.1-2.4-1.4l-12.4-3.7c-1-.3-1.9-1-2.4-1.9l-6.3-10.7c-.5-.9-.7-2-.5-3l4.2-19.2s0-.4.2-.6l8.6-22.4c.2-.5.4-.9.8-1.3l8.3-9.3c.4,0,.7.3,1.1.3l19.6,1.4h.4c.2,0,.4,0,.5,0l17.2,14.6c.3.3.6.5,1,.7l15.6,6.8c1.7.7,2.7,2.4,2.5,4.3ZM372.3,637.4l-14.3-10.9s-.2-.1-.3-.2l-25.7-16.8c-.3-.2-.7-.4-1.1-.5l-8.2-2.3c-2.6-.7-3.8-3.8-2.5-6.1h.2c0,0,4.2-7.1,4.2-7.1.1-.2.3-.5.3-.7l5.9-17.1c0-.3.2-.6.2-.9l.7-7.1c.2-1.7,1.4-3.1,3-3.6l12.5-3.5c.8-.2,1.5-.7,2.1-1.3l6.4-7.7c.4-.4.8-.8,1.4-1,.7-.4,1.3-.8,2-1.4.2-.1.3-.3.4-.5l4.6-1c1.2-.3,2.5,0,3.5.8l10.7,8.4c.4.3.7.6.9,1l11.6,17.1s.2.4.3.6l8.4,18c.4.7.5,1.5.4,2.3l-1.3,9.2c-.3,2,.9,3.9,2.8,4.5,1.2.4,2.4.8,3.5.8,3,0,5.7-2.3,6.1-5.3l1.5-11.1c0-.8,0-1.6-.4-2.3l-10.3-22.1c-.1-.3-.3-.6-.5-.8l-2.2-3.2,6-2.6c.8-.3,1.7-.4,2.6-.3l21,5c3.3.8,6.6-1.3,7.4-4.6.8-3.3-1.3-6.6-4.6-7.4l-25-5.9c-.9-.2-1.8-.1-2.7.3l-8.6,3.7c-1.8.8-4,.2-5.1-1.5l-2-2.9c-.3-.3-.5-.7-.9-1l-16.8-13.2c-1-.8-2.3-1.1-3.5-.8l-7.7,1.7-25.9-26.8c-.3-.3-.6-.6-1-.7l-18.3-10.1c-1.1-.6-1.9-1.7-2.1-3l-7.8-52.2c0-.5-.2-1-.5-1.4l-6.4-11.6c-.3-.6-.5-1.3-.5-2v-9.9c0-.3,0-.5,0-.8l-1.7-9.1c-.3-1.7.5-3.5,2-4.4l11.1-6.5s.4-.2.5-.3l34-14.1c.9-.4,1.9-.4,2.8-.1l42.5,12.9c1.7.5,3,2.2,3,4v8.2c0,.4,0,.8-.2,1.1l-2.2,7.8c-.4,1.5-1.7,2.7-3.2,3l-10.8,2.2c-.4,0-.8.2-1.2.4l-16.4,9c-.6.3-1.2.5-1.8.5l-15.6.8c-.4,0-.8,0-1.2.2l-19.4,6.8c-3.2,1.1-4.9,4.7-3.8,7.9.9,2.5,3.3,4.1,5.8,4.1s1.4-.1,2-.3l17.7-6.2c.4-.1.7-.2,1.2-.2l6.2-.4c2.3-.1,4.2,1.6,4.4,3.8l.7,8.2c0,.6.3,1.3.6,1.9l11.1,17.7c.5.7,1.2,1.3,2,1.6l13.7,5.5c1.7.7,2.7,2.4,2.6,4.2l-.8,10.6v.3l-3,21.2c-.2,1.3.3,2.7,1.3,3.7,4.6,4.3,10.4,1.7,11.1-3.1l2.9-20.4v-.3l1-13.2c0-1.4.8-2.6,2-3.3l4.5-2.7c.5-.3,1.1-.5,1.7-.6l17.9-2h1.1l15.2,2.2c.8.1,1.6.5,2.2,1l14.1,12.4s.3.2.4.3l10.5,7.1c1.3.9,2,2.5,1.8,4.1l-3.7,24.2c0,.4,0,.7,0,1.1l3.3,27.5v.6l-.9,32.2v.5l-3.8,26.1c-.3,1.7-1.5,3-3.2,3.4l-27.3,6.6s-.3,0-.5.1l-17.4,6.3c-.5.2-1.1.3-1.6.3l-30.3-1.3c-2.6,0-5.1.9-7,2.7l-2.4,2.4ZM459.6,688.5c0,1.2-.6,2.3-1.4,3l-11.4,9.8c-.6.5-1.4.9-2.2,1l-20.5,2.5-21,3.3c-.4,0-.8.2-1.2.3h-.1s0,0,0,0l-1.6-2.3-10.6-13.3s-.2-.3-.3-.4l-11.8-19.5c-.5-.8-.7-1.7-.6-2.5l1.2-12.7c.7-.4,1.3-.8,1.8-1.3l4-4c.8-.8,2-1.3,3.1-1.2l28.1,1.2c.6,0,1.1,0,1.6-.3l13.6-5c2-.7,4.1.1,5.1,2l8.3,15.4c.3.5.6.9,1,1.2l13.7,11.4c1,.8,1.5,2,1.5,3.3l-.2,8.1ZM510.8,689.1l-19.2,2.3c-.4,0-.8,0-1.2,0l-15-2.6c-2-.3-3.5-2.2-3.5-4.2l.3-9.7c0-1.3-.5-2.5-1.5-3.3v-.2h0s-16.4-13.7-16.4-13.7c-.4-.3-.7-.7-1-1.2l-5-9.2c-1.3-2.4,0-5.4,2.7-6l13.3-3.2c1.5-.3,3,.1,4.1,1.3l14.3,15.8c.3.3.6.6,1,.8l26.9,15.4c1.3.7,2.1,2.2,2.1,3.7v2.2c0,.3,0,.7.1,1.1l1.5,5.5c.7,2.4-1,4.9-3.5,5.2ZM525.4,582.7c-.2.3-.3.7-.5,1.1h0s-12,46.5-12,46.5c0,.3-.1.7-.1,1v12.7c0,3.2-3.5,5.2-6.3,3.6l-11.1-6.4c-.4-.2-.7-.5-1-.8l-13.4-14.8c-.8-.9-1.2-2.2-1-3.4l4.4-29.9v-.5l1-34.6v-.6l-3.2-26.3c0-.4,0-.7,0-1.1l1.4-9.6c.4-3,3.9-4.5,6.4-2.9l4.1,2.7s.1,0,.2.1l27.2,15.6s.4.2.6.4l18.6,15.1c1.6,1.3,2,3.6,1,5.4l-16.1,26.7ZM675.9,660.9l-4,7.6c-.6,1.1-1.7,1.9-2.9,2.2l-13.9,2.7c-.8.2-1.6.6-2.2,1.2l-19,19.6h0c0,.1,0,.1,0,.1l-4-3.1s-.2-.2-.3-.3l-12.3-7.7c-.4-.3-.8-.6-1.1-1l-10.9-14.3s-.2-.2-.3-.3l-11.6-12.7s0-.1,0-.2c.5-2.4.9-12.8,1-19.5,0-.3,0-.6.1-.9l2.7-10.9c.2-.9.7-1.7,1.4-2.2l12.3-10s.2-.2.3-.2l18.2-12.2c2.8-1.9,3.6-5.7,1.7-8.6-1.9-2.8-5.7-3.6-8.6-1.7l-18.7,12.5s-.2.1-.3.2l-15.4,12.5c-.9.7-1.5,1.7-1.9,2.8l-2.2-4.3s-.2-.3-.3-.5l-11.1-15.8c-2-2.8-5.8-3.5-8.6-1.5-2.8,2-3.5,5.8-1.5,8.6l10.6,15.2s.2.3.3.5l7.7,15.1c.3.7.4,1.3.4,2s0,1.4.3,2.1c0,1.8-.1,3.7-.2,5.4,0,2.6-2.6,4.5-5.1,3.9l-6.8-1.6c-.3,0-.5,0-.8,0l-24.1-1c-1,0-1.9.1-2.7.5l-5.4,2.3c-2.7,1.2-5.8-.8-5.8-3.8v-9.8c0-.3,0-.7.1-1l10.8-41.7c0-.4.3-.8.5-1.1l18.5-30.8c.3-.6.8-1,1.3-1.4l21.3-13.4c.6-.3,1-.8,1.5-1.2,3,1.7,7.5,4.2,14.4,7.9.4.2.9.4,1.3.4,5.1.7,13.7,2,15.3,2.4,1.3.3,6.3,1.1,11,1.9.3,1,.7,1.9,1.3,2.8l24.5,34.5s0,.1.1.2l12.8,16c.3.4.6.9.7,1.4l8.8,29c0,.3.2.7.2,1.1l.6,18.2c0,.7-.1,1.4-.5,2ZM723,692.3l-5.7-.3c-.6,0-1.2-.2-1.7-.5l-12.9-7c-.2-.1-.4-.3-.6-.4l-11.6-9.4c-.3-.3-.4-.7-.2-1l2.3-4.3c.2-.3.6-.5,1-.4h0s0,0,0,0l13.6,4c.3,0,.7.2,1.1.2l13.7.3c2.3,0,4.2,2,4.1,4.3v2.7c0,.4,0,.8,0,1.2l1.4,5.6c.7,2.7-1.5,5.4-4.3,5.2ZM811.3,693.8l-5.3,3.1c-.3.2-.6.4-.9.7l-10.3,10.3c-1.1,1.1-2.9,1.5-4.4,1v-.2c0,0,0,0,0,0l-17.6-6.4c-.4-.2-.9-.3-1.3-.3l-20.1-.4c-.6,0-1.2-.1-1.7-.4l-7.1-3.3v-.3l-4.4-17.2c0-.4-.1-.8-.1-1.2l.3-8.3c0-1.4.8-2.7,2-3.4l8-4.9c6-4.2,13.3-9,16.2-10.7.4-.2.8-.3,1.2-.4,1.2-.3,3.1-.7,6.4-1.6,3.8-1,10.8-2.7,12.7-2.9h.3c2.9,0,13.8-.7,20.2-1.1,1.9-.1,3.6,1,4.2,2.8l2.9,8.4c.2.5.3,1.1.2,1.7l-1.3,16.8v1l2,13.1c.3,1.7-.5,3.4-2,4.3ZM791.8,570.7c1.6-.7,3.3-.3,4.6,1l20.6,21s.3.4.5.6l11.9,17.9c1.1,1.7.9,4-.6,5.4l-8.1,7.6s-.3.3-.5.4l-11.9,8h0s0,0,0,0c-.6.4-1.3.7-2,.7-8.3.6-19.2,1.2-21.2,1.2s-6.6,1-15.9,3.3c-2.3.6-5.1,1.3-6,1.5-1.9,0-4.3.9-21.5,12.9l-13.6,8.4c-.7.4-1.5.7-2.3.6l-15.6-.3c-.4,0-.7,0-1.1-.2l-11.2-3.3c-1.7-.5-2.9-2.1-3-3.9l-.5-15.7c0-.3,0-.7-.2-1.1l-9-29.5c-.5-1.5,0-3.2,1.2-4.3l12.7-11.5c.3-.3.7-.5,1.1-.7l14.4-6.6c.5-.2,1-.3,1.6-.4l13.4-.6c.2.3.3.6.6.8l5.6,5.6c.8.8,1.2,1.8,1.2,3v9.6c0,.5,0,1-.3,1.5l-6,15.9c-1.2,3.2.4,6.7,3.6,8,.7.3,1.4.4,2.2.4,2.5,0,4.8-1.5,5.8-4l6.8-18c.2-.5.3-1,.3-1.5v-17c0-1.1-.4-2.2-1.2-3l-3.4-3.4,9.4-1.9c.2,0,.5,0,.7,0l17.6-.5c.5,0,1-.1,1.4-.3l18.2-7.3ZM736.5,489.5l8.3,9s.3.4.5.6l16.9,26.8s.2.3.3.6l20.2,29.2c1.5,2.2.6,5.2-1.9,6.2l-9.8,4c-.5.2-1,.3-1.4.3h0s-16.5.4-16.5.4c-.2,0-.5,0-.7,0l-18.5,3.7s-.4,0-.6,0l-5.2.3c-2.7.1-4.9-2.4-4.3-5.1.4-1.8.8-3.5,1.1-4.9.2-.8.6-1.5,1.1-2l10.2-10.2c.2-.2.3-.3.5-.4l12.2-8.6c2.8-2,3.4-5.8,1.5-8.6-2-2.8-5.8-3.4-8.6-1.5l-13,9.2s-.4.3-.6.5l-3.4,3.4-3.5-7.3c-.4-1-1.1-1.7-2-2.3l-1.7-1.2c.3-2.2.6-7.2.9-19.8,0-.3,0-.6.1-.9l2.9-11.5c.2-.7.6-1.4,1-1.9l7.9-8.1c1.7-1.7,4.4-1.7,6,0ZM702.9,453.6l19.5,20.8c1.5,1.6,1.5,4.2,0,5.8l-10.9,11.2c-.5.5-.9,1.2-1,1.9h0s0,0,0,0l-4,16c0,.3-.1.6-.1.9,0,4.3-.3,9.2-.4,13-.9-.6-1.8-1-2.9-1.1l-18.6-1.9c-3.3-.3-6.4,2.1-6.7,5.5s2.1,6.4,5.5,6.7l15.9,1.7c.7,0,1.4.3,2,.7l9,6.4c.6.4,1,1,1.3,1.6l4.3,8.9-.4.4c-.8.8-1.4,1.9-1.7,3,0,0-3.4,14.9-3.9,17.4h0c0,.1-16.4,7.7-16.4,7.7-.4.2-.7.4-1.1.7l-11.2,10.2c-1.8,1.6-4.6,1.4-6.1-.5l-6.8-8.5s0-.1-.1-.2l-19.5-27.4c-.9-1.3-1-2.9-.3-4.3l11.9-23.3c.3-.6.5-1.3.5-1.9v-28.3c0-.9.3-1.8.8-2.5l19.5-25.8s.3-.4.5-.5l15.6-14.5c1.7-1.6,4.3-1.5,5.9.2ZM725,345.7l-30.7,23.4c-1.7,1.3-4.2,1.1-5.7-.5l-8-9c-.2-.3-.4-.5-.6-.8l-20.9-39.2s-.3-.4-.4-.6l-33.4-42.5-17.9-21.8c-.5-.6-.8-1.4-.9-2.1l-.7-5.2h0l11.8,7.6c.1,0,.3.2.4.3l21.9,10.6s.4.2.6.2l22.8,7.1c.3.1.7.2,1.1.2l23.4.7h.2c.3,0,.7,0,1,0l22.4-3.5c1.4-.2,2.7-.9,3.6-2l.8-.9,5,16.3h0c0,0,0,0,0,0,.1.5.2,1,.2,1.5l-1.3,20.4-1.4,18.2c0,.9.1,1.8.6,2.5l5.8,9.5,4.5,7.9c-1.6.2-3.1.8-4.4,1.8ZM843.6,304.2c.3.2.6.4.9.7l17.3,16.6,13.7,12.5h0s0,0,0,0c.8.7,1.3,1.8,1.3,2.9l2.6,48.2c0,.4,0,.8.2,1.2v.4c.1,0-9.4.9-9.4.9h-1l-16.8-2.7c-.2,0-.4,0-.7-.2l-18.2-6c-.3-.1-.7-.3-1-.4l-13.5-8.7v-.7c-.1-.6-.3-1.2-.5-1.8l-5.7-14.2c-.1-.3-.3-.6-.4-.8l-8.5-12.2c-.4-.5-.6-1.1-.7-1.8l-1.3-9c-.2-1.6.4-3.1,1.7-4l6-4.3c.2-.2.4-.4.7-.6l19.2-20.4c1.3-1.4,3.4-1.7,5-.8l9.2,5ZM839.2,203.9c-.4.5-.7,1-.9,1.6h0s-9.7,31.6-9.7,31.6c0,0,0,.3-.1.5l-7.2,38.4c-.5,2.4-2.9,4-5.3,3.2l-5.2-1.6c-.3,0-.7-.2-1.1-.2l-19.4-.6c-1.2,0-2.4-.6-3.1-1.5l-6-7.3c-.3-.3-.6-.6-1-.9l-12.2-7.7c-2.9-1.8-6.7-1-8.5,2-1.8,2.9-1,6.7,2,8.5l10.5,6.6c.4.3.7.5,1,.9l2.6,3.1-3.5,1.6c-.3.2-.7.4-1,.6l-12,10.2c-2.6,2.2-2.9,6.1-.7,8.7,2.2,2.6,6.1,2.9,8.7.7l10.6-9c.3-.3.7-.5,1-.6l7.1-3.2c.6-.3,1.2-.4,1.8-.3l20.6.6,4.2,1.3-14.5,15.4s-.4.4-.7.6l-52.4,37h-1.4l-8-14.1-3.8-6.2c-.5-.7-.7-1.6-.6-2.5l1.1-14.2,1.4-22.8c0-.5,0-1-.2-1.5l-5-16.2c-.2-.6-.2-1.3-.1-1.9l2.1-12.9c0-.4.2-.8.4-1.2l5.1-10.1c.2-.5.4-1,.4-1.5l.4-4.6,10,6.9c.6.4,1.2.7,1.9.7l23.6,2.9c.3,0,.5,0,.7,0,.7,0,1.3,0,2-.3l17.4-5.8c.9-.3,1.6-.9,2.1-1.6l11.4-16.7c.3-.3.5-.6.9-1l17.4-13.6c.3-.2.6-.4.9-.5l12.7-5.8c.4-.2.8-.3,1.3-.4l5.3-.6-5,5.4ZM781.7,136l10,7.2,17.5,13s.3.2.4.3l31.4,29.9-5.5.6c-.4,0-.9.2-1.3.4l-15.9,7.2c-.3.1-.6.3-.9.5l-20,15.7c-.3.3-.7.6-.9,1l-10.1,14.9c-.5.7-1.3,1.3-2.1,1.6l-11.3,3.8c-.6.2-1.2.3-1.8.2l-18.2-2.2c-.7,0-1.3-.3-1.9-.7l-12.5-8.7c-.9-.6-1.6-1.6-1.7-2.7h0s0,0,0,0l-2.1-12.2c0-.6-.3-1.1-.6-1.6l-9.2-14.2-4.3-7c-1-1.6-.7-3.8.7-5.2l10.1-9.8s.2-.2.3-.3l27.5-21.2s.3-.2.4-.3l17.5-10.4c1.4-.9,3.2-.8,4.6.2Z"/>
  <path class="st1" d="M898.3,254.7l-11.1,4.4s-.3.1-.5.2l-12.7,3.3c-3.3.9-5.3,4.2-4.4,7.5.7,2.8,3.2,4.6,6,4.6s1,0,1.6-.2l13.4-3.5s.3,0,.5-.2l8.9-3.5v-13.8h0c-.4.6-1,1-1.6,1.2Z"/>
  <path class="st1" d="M187.7,717h7.9c-2.2-1.9-5.6-1.9-7.9,0Z"/>
  <polygon class="st1" points="452.9 79.7 452.8 79.7 452.8 79.7 452.9 79.7"/>
  <polygon class="st1" points="546.1 89.2 546.1 89.2 546.1 89.2 546.1 89.2"/>
  <polygon class="st1" points="320.5 600.6 320.5 600.6 320.4 600.6 320.5 600.6"/>
  <path class="st1" d="M90.7,454.5s0,0,0,0h0s0,0,0,0Z"/>
  <polygon class="st1" points="838.2 205.4 838.3 205.4 838.3 205.4 838.2 205.4"/>
</svg>